<svg width="202" height="202" viewBox="0 0 202 202" fill="none" xmlns="http://www.w3.org/2000/svg">
<circle opacity="0.202683" cx="101" cy="101" r="101" transform="matrix(-1 0 0 1 202 0)" fill="url(#paint0_linear_1_2701)"/>
<path d="M163.347 100.866H177.883C177.883 100.866 187.421 120.536 189.299 128.964H163.347V100.866Z" fill="#E7816B"/>
<path fill-rule="evenodd" clip-rule="evenodd" d="M163.347 129.231H189.299C189.381 129.232 189.458 129.196 189.509 129.133C189.558 129.068 189.577 128.986 189.562 128.906C187.695 120.513 178.222 100.948 178.122 100.75C178.08 100.657 177.986 100.597 177.883 100.599H163.347C163.198 100.599 163.078 100.719 163.078 100.866V128.964C163.078 129.112 163.198 129.231 163.347 129.231ZM188.967 128.703H163.632L163.615 101.128H177.714C178.589 102.947 187.042 120.623 188.967 128.703Z" fill="#231F20"/>
<path d="M164.321 122.477L175.667 127.494C175.667 127.494 165.692 84.481 146.208 65.0673C146.208 65.0673 139.401 70.2985 134.489 83.8707C133.241 87.3175 134.303 85.1494 134.221 85.7307L132.897 95.1063L164.321 122.477Z" fill="#E7816B"/>
<path fill-rule="evenodd" clip-rule="evenodd" d="M175.562 127.761C175.596 127.766 175.632 127.766 175.667 127.761C175.731 127.76 175.792 127.738 175.842 127.697C175.918 127.633 175.952 127.532 175.929 127.435C175.83 127.005 165.709 84.1497 146.395 64.8812C146.295 64.7924 146.145 64.7924 146.045 64.8812C145.975 64.9336 139.121 70.3159 134.238 83.8009C133.463 85.9503 133.532 85.9922 133.754 86.1257L133.754 86.1259C133.797 86.1517 133.845 86.1676 133.894 86.1724L132.611 95.0597C132.598 95.15 132.634 95.2402 132.704 95.2981L164.128 122.698C164.146 122.717 164.168 122.731 164.192 122.739L175.562 127.761ZM175.299 127.034L164.467 122.251L133.177 94.9435L134.501 85.7423C134.545 85.5935 134.48 85.434 134.343 85.3587H134.273C134.304 85.2721 134.343 85.157 134.391 85.0136C134.477 84.7528 134.596 84.3984 134.757 83.9521C139.138 71.8156 145.1 66.3634 146.208 65.4218C164.152 83.5103 174.086 122.094 175.299 127.034Z" fill="#231F20"/>
<path d="M134.775 91.5665C134.775 91.5665 137.884 76.9073 146.343 68.7466C146.343 68.7466 159.374 79.7903 171.974 124.012L131.013 121.739C131.013 121.739 131.818 99.2622 134.775 91.5665Z" fill="#231F20"/>
<path fill-rule="evenodd" clip-rule="evenodd" d="M131.013 122.03L171.974 124.302C172.07 124.328 172.172 124.302 172.243 124.233C172.302 124.16 172.322 124.062 172.295 123.971C159.812 80.1449 146.704 68.671 146.57 68.5605C146.46 68.4579 146.289 68.4579 146.179 68.5605C137.884 76.5411 134.658 90.8399 134.513 91.5025C131.598 99.1011 130.784 120.523 130.739 121.707L130.738 121.727C130.732 121.886 130.854 122.02 131.013 122.03ZM171.583 123.704L131.333 121.466C131.421 118.833 132.325 98.7681 135.061 91.671V91.6245C135.09 91.4792 138.182 77.1921 146.348 69.1476C147.118 69.88 150.128 72.949 154.212 79.9879C158.581 87.486 165.126 101.145 171.583 123.704Z" fill="#231F20"/>
<path d="M120.991 104.214C120.991 104.214 127.851 89.9447 136.368 81.6619C136.368 81.6619 147.118 90.0668 154.118 99.0646C161.118 108.062 167.535 124.012 167.535 124.012H121.615L120.991 104.214Z" fill="white"/>
<path fill-rule="evenodd" clip-rule="evenodd" d="M121.615 124.302H167.541L167.512 124.279C167.608 124.28 167.699 124.233 167.754 124.154C167.809 124.075 167.821 123.974 167.786 123.884C167.739 123.744 161.264 107.795 154.323 98.8902C147.602 90.269 137.306 82.0783 136.561 81.4862C136.537 81.4667 136.523 81.4554 136.519 81.4527C136.409 81.3563 136.244 81.3563 136.134 81.4527C127.851 89.5297 121.018 103.437 120.71 104.065C120.704 104.077 120.7 104.084 120.699 104.087C120.69 104.131 120.69 104.176 120.699 104.22L121.323 124.023C121.33 124.179 121.458 124.303 121.615 124.302ZM167.109 123.721H121.895L121.288 104.278C121.298 104.259 121.31 104.234 121.325 104.205C122.06 102.736 128.535 89.7934 136.391 82.0455C137.896 83.2487 147.515 91.0491 153.891 99.2447C160.109 107.272 166.053 121.193 167.109 123.721Z" fill="#231F20"/>
<path d="M136.251 84.5043C136.251 84.5043 126.976 93.223 123.575 105.15C123.575 105.15 163.364 119.153 163.008 118.804C162.653 118.455 157.099 105.894 150.758 98.5415C141.793 88.1313 136.251 84.5043 136.251 84.5043Z" fill="#231F20"/>
<path fill-rule="evenodd" clip-rule="evenodd" d="M143.152 112.323C159.66 118.083 162.495 119.054 163.078 119.054C163.201 119.054 163.23 119.013 163.253 118.961C163.329 118.853 163.317 118.706 163.224 118.612C163.148 118.513 162.816 117.845 162.431 117.066L162.413 117.03C160.49 113.168 156.028 104.208 150.992 98.3496C142.09 88.0034 136.467 84.3008 136.408 84.2659C136.296 84.1906 136.146 84.2027 136.047 84.295C135.953 84.3822 126.678 93.1998 123.295 105.069C123.249 105.216 123.329 105.374 123.476 105.423C123.476 105.423 133.305 108.882 143.152 112.323ZM162.431 118.356C158.388 117.083 136.181 109.306 123.931 104.988C127.075 94.2634 135.026 86.1201 136.292 84.8995C137.342 85.6319 142.638 89.5321 150.566 98.7449C155.558 104.542 159.998 113.473 161.908 117.314L161.923 117.345L162.431 118.356Z" fill="#231F20"/>
<path d="M126.742 92.0024C126.742 92.0024 145.491 94.8563 156.667 107.621C162.372 114.142 167.541 124.012 167.541 124.012H144.68L126.742 92.0024Z" fill="#E7816B"/>
<path fill-rule="evenodd" clip-rule="evenodd" d="M144.68 124.279H167.541C167.637 124.279 167.725 124.225 167.768 124.14C167.815 124.059 167.815 123.959 167.768 123.878L167.765 123.872C167.606 123.571 162.458 113.835 156.854 107.435C145.747 94.7575 126.958 91.7408 126.772 91.7408C126.67 91.7272 126.57 91.7695 126.509 91.8512C126.459 91.9397 126.459 92.0476 126.509 92.136L144.447 124.145C144.495 124.229 144.584 124.28 144.68 124.279ZM167.097 123.75H144.837L127.25 92.3627C130.412 92.9556 146.547 96.4664 156.463 107.795C161.451 113.491 166.077 121.861 167.097 123.75Z" fill="#231F20"/>
<path d="M116.593 105.168C120.676 99.1576 123.009 95.3504 126.743 92.0024C133.713 96.1261 140.13 101.114 145.841 106.848C150.844 111.932 155.078 117.714 158.412 124.012H107.376C107.376 124.012 112.813 110.713 116.593 105.168Z" fill="white"/>
<path fill-rule="evenodd" clip-rule="evenodd" d="M107.376 124.302H158.412C158.509 124.302 158.6 124.252 158.651 124.169C158.697 124.079 158.697 123.973 158.651 123.884C155.292 117.562 151.039 111.754 146.022 106.638C140.288 100.893 133.849 95.8918 126.859 91.7524C126.753 91.6896 126.618 91.7038 126.527 91.7873C123.312 94.6412 121.125 97.8904 118.103 102.383C117.567 103.209 116.983 104.081 116.353 105.005C112.597 110.509 107.16 123.773 107.107 123.907C107.069 123.995 107.081 124.097 107.137 124.175C107.19 124.255 107.28 124.303 107.376 124.302ZM157.933 123.721H107.813C108.752 121.466 113.477 110.248 116.837 105.33L118.617 102.709C121.562 98.3205 123.709 95.1353 126.783 92.3627C133.651 96.4655 139.984 101.399 145.637 107.051C150.491 112.013 154.63 117.623 157.933 123.721Z" fill="#231F20"/>
<path d="M109.237 124.012C109.237 124.012 113.197 114.27 118.121 106.516C123.132 98.6286 127.005 94.8563 127.005 94.8563C127.005 94.8563 132.879 97.6347 142.586 107.138C149.218 113.631 155.378 123.994 155.378 123.994L109.237 124.012Z" fill="#231F20"/>
<path fill-rule="evenodd" clip-rule="evenodd" d="M109.237 124.302H155.378C155.489 124.311 155.594 124.254 155.647 124.157C155.699 124.067 155.699 123.956 155.647 123.866C155.644 123.862 155.622 123.827 155.584 123.764C154.915 122.667 149.042 113.025 142.813 106.929C133.188 97.501 127.215 94.5947 127.157 94.5947C127.045 94.5437 126.914 94.5643 126.824 94.6471C126.823 94.6487 126.815 94.657 126.8 94.6719C126.461 95.0145 122.663 98.8608 117.899 106.359C113.017 114.026 109.027 123.808 108.992 123.907C108.945 123.99 108.945 124.092 108.992 124.175C109.047 124.255 109.139 124.303 109.237 124.302ZM154.859 123.721H109.674C110.473 121.844 114.073 113.433 118.366 106.673C122.758 99.7562 126.311 95.9781 127.063 95.2109C128.131 95.7689 133.772 98.9134 142.382 107.347C148.139 112.98 153.611 121.681 154.859 123.721Z" fill="#231F20"/>
<path d="M127.833 127.493H68.2225C68.2225 127.493 65.3816 101.918 66.7875 85.0622C68.1933 68.206 76.9375 55.6626 76.9375 55.6626C76.9375 55.6626 99.0458 61.0798 112.34 82.3536C125.634 103.627 127.833 127.493 127.833 127.493Z" fill="white"/>
<path fill-rule="evenodd" clip-rule="evenodd" d="M68.2225 127.784H127.833C127.922 127.793 128.009 127.758 128.067 127.691C128.123 127.632 128.151 127.551 128.143 127.47L128.142 127.469C128.111 127.153 125.776 103.267 112.591 82.1734C99.3842 61.045 77.2292 55.4069 77.0075 55.3546C76.89 55.3201 76.7637 55.3676 76.6983 55.4708C76.6108 55.5812 67.8842 68.3106 66.4958 85.0099C65.2238 100.311 67.4924 123.053 67.8813 126.952C67.9168 127.308 67.9367 127.507 67.9367 127.528C67.9517 127.674 68.0754 127.785 68.2225 127.784ZM127.53 127.203H68.485C68.1933 124.471 65.7667 100.803 67.0908 85.0332C68.3975 69.5196 76.0567 57.5168 77.0833 55.9707C79.2825 56.5752 99.6817 62.6144 112.095 82.4815C124.386 102.145 127.203 124.297 127.53 127.203Z" fill="#231F20"/>
<path d="M127.833 127.493H109.75C109.75 127.493 107.545 104.412 98.6667 83.9346C89.7884 63.4572 76.955 55.6335 76.955 55.6335C76.955 55.6335 99.0634 61.0508 112.358 82.3245C125.652 103.598 127.833 127.493 127.833 127.493Z" fill="#E7816B"/>
<path fill-rule="evenodd" clip-rule="evenodd" d="M109.75 127.761H127.833H127.921C127.996 127.761 128.068 127.73 128.119 127.675C128.17 127.619 128.196 127.545 128.189 127.47L128.189 127.468C128.155 127.119 125.825 103.258 112.638 82.185C99.4192 61.0624 77.2759 55.4301 77.0542 55.3778C76.9262 55.3451 76.7937 55.4123 76.745 55.5347C76.6967 55.6543 76.7409 55.7911 76.85 55.8602C76.8524 55.8619 76.861 55.8675 76.8757 55.877C77.521 56.2949 89.8786 64.2973 98.4334 84.045C107.183 104.243 109.488 127.29 109.488 127.523C109.502 127.657 109.615 127.759 109.75 127.761ZM127.542 127.232H109.96C109.698 124.715 107.195 103 98.8767 83.8416C91.7659 67.4097 81.9659 59.0164 78.4134 56.3659C83.675 58.0632 101.047 64.794 112.095 82.4757C124.433 102.197 127.233 124.442 127.542 127.232Z" fill="#231F20"/>
<path d="M107.376 127.493C107.376 127.493 103.608 103.011 98.6667 89.875C91.41 70.6938 77.6667 59.6849 77.6667 59.6849C77.6667 59.6849 71.8333 70.6937 70.5208 79.7729C69.6692 85.7714 68.9692 115.584 70.5792 127.226L107.376 127.493Z" fill="#231F20"/>
<path fill-rule="evenodd" clip-rule="evenodd" d="M70.5791 127.517L107.376 127.784C107.463 127.787 107.547 127.751 107.603 127.685C107.661 127.62 107.687 127.533 107.673 127.447C107.671 127.435 107.66 127.366 107.64 127.245C107.256 124.861 103.597 102.154 98.9233 89.7878C91.7191 70.7402 77.9758 59.586 77.8358 59.4756C77.7702 59.4188 77.6811 59.3971 77.5966 59.4175C77.5119 59.4336 77.439 59.487 77.3983 59.5628C77.34 59.65 71.5183 70.6937 70.2291 79.7322C69.4066 85.5505 68.6775 115.607 70.2933 127.267C70.3135 127.409 70.435 127.515 70.5791 127.517ZM107.037 127.203L70.8358 126.935C69.2725 115.148 69.99 85.5737 70.8125 79.8252C71.9558 71.74 76.7858 62.0331 77.7483 60.1673C86.8942 68.3479 93.9631 78.5727 98.375 90.0028C102.954 102.099 106.559 124.204 107.037 127.203Z" fill="#231F20"/>
<path d="M62.5 75.7041C62.5 75.7041 74.7091 77.814 88.6275 87.4919C112.282 103.941 120.501 127.493 120.501 127.493H58.6266C58.6266 127.493 60.75 82.528 62.5 75.7041Z" fill="#E7816B"/>
<path fill-rule="evenodd" clip-rule="evenodd" d="M58.6267 127.761H120.518V127.714C120.605 127.713 120.685 127.671 120.736 127.601C120.786 127.531 120.801 127.442 120.775 127.36C120.773 127.355 120.768 127.342 120.759 127.319C120.341 126.196 111.785 103.234 88.8025 87.2536C74.9775 77.6455 62.675 75.4193 62.5525 75.4193C62.4138 75.3965 62.2803 75.4819 62.2433 75.617C60.5108 82.3885 58.4283 125.622 58.3408 127.459C58.3403 127.532 58.3674 127.602 58.4167 127.656C58.4674 127.721 58.5445 127.759 58.6267 127.761ZM120.157 127.226H58.9067C59.0875 123.465 61.0825 83.1848 62.7392 76.0064C64.53 76.3668 75.8758 78.9126 88.5167 87.7011C110.24 102.814 118.99 124.227 120.157 127.226Z" fill="#231F20"/>
<path d="M101.064 127.493C101.064 127.493 99.4541 114.648 88.575 100.326C77.6958 86.0039 62.5 75.7041 62.5 75.7041C62.5 75.7041 55.9841 84.8065 53.5633 95.6468C51.1425 106.487 52.98 127.493 52.98 127.493H101.064Z" fill="white"/>
<path fill-rule="evenodd" clip-rule="evenodd" d="M52.9858 127.784H101.064C101.137 127.78 101.206 127.749 101.257 127.697C101.311 127.634 101.336 127.552 101.327 127.47C101.309 127.331 99.5592 114.34 88.7792 100.152C78.0774 86.0662 63.0295 75.7215 62.6632 75.4697C62.6605 75.4679 62.6586 75.4666 62.6575 75.4658C62.5267 75.3759 62.3477 75.4069 62.255 75.5356C62.254 75.537 62.2517 75.5403 62.2479 75.5457C61.9975 75.902 55.6164 84.9837 53.2775 95.5829C51.059 105.636 52.4772 124.602 52.6727 127.217C52.6865 127.4 52.6942 127.503 52.6942 127.517C52.709 127.667 52.8345 127.782 52.9858 127.784ZM100.702 127.203H53.2542C53.0558 124.75 51.6383 105.726 53.82 95.6933C56.0133 85.9748 61.5492 77.5932 62.57 76.0936C64.5475 77.4886 78.3375 87.3582 88.3183 100.506C98.0717 113.334 100.358 125.116 100.702 127.203Z" fill="#231F20"/>
<path d="M98.2641 125.756C98.2641 125.756 95.05 112.596 82.0591 97.1C76.5479 90.5537 70.2245 84.7314 63.2408 79.7729C63.2408 79.7729 57.215 87.6837 55.7041 97.7219C54.4675 105.958 54.1991 120.722 54.1408 125.756H98.2641Z" fill="#231F20"/>
<path fill-rule="evenodd" clip-rule="evenodd" d="M54.1408 126.046H98.2642C98.349 126.043 98.4281 126.003 98.48 125.936C98.537 125.866 98.5565 125.773 98.5325 125.686C98.5033 125.552 95.155 112.282 82.2692 96.914C76.7327 90.3538 70.3908 84.513 63.3925 79.5288C63.2661 79.4421 63.0936 79.4703 63.0017 79.5927C62.9492 79.6566 56.9233 87.6837 55.4183 97.6754C54.1992 105.79 53.9133 120.013 53.8492 125.75C53.848 125.829 53.8797 125.904 53.9367 125.959C53.9909 126.013 54.064 126.045 54.1408 126.046ZM97.8792 125.465H54.4383C54.5083 119.559 54.8 105.702 55.9958 97.7626C57.3375 88.8462 62.3367 81.5283 63.3108 80.1681C70.1669 85.0962 76.3891 90.8453 81.8375 97.286C93.4458 111.137 97.255 123.25 97.8792 125.465Z" fill="#231F20"/>
<path d="M94.7525 127.493C94.1692 125.209 91.7366 117.345 84.2525 106.016C75.2867 92.4674 62.9958 88.4509 62.9958 88.4509H38.8167V89.3577L55.3367 127.493H94.7525Z" fill="#E7816B"/>
<path fill-rule="evenodd" clip-rule="evenodd" d="M55.3367 127.761H94.7525C94.8481 127.765 94.9388 127.718 94.9917 127.639C95.0435 127.575 95.0609 127.491 95.0383 127.412C94.4725 125.232 92.04 117.258 84.4975 105.854C75.5842 92.3802 63.2292 88.2243 63.1067 88.1836C63.0778 88.1781 63.0481 88.1781 63.0192 88.1836H38.8458C38.6999 88.1867 38.5833 88.3055 38.5833 88.4509V89.3577C38.5778 89.3923 38.5778 89.4277 38.5833 89.4623L55.0917 127.598C55.1322 127.697 55.2293 127.762 55.3367 127.761ZM94.3908 127.226H55.5L39.085 89.3054V88.7241H62.9375C63.7075 88.9857 75.4558 93.2288 84.0075 106.162C91.165 116.979 93.6908 124.674 94.3908 127.226Z" fill="#231F20"/>
<path d="M82.0591 127.493C78.7925 121.844 63.6666 97.6405 38.8166 88.4509C38.8166 88.4509 31.0466 105.022 33.2575 127.493H82.0591Z" fill="white"/>
<path fill-rule="evenodd" clip-rule="evenodd" d="M33.2575 127.784H82.0592C82.1627 127.784 82.2582 127.728 82.31 127.639C82.3621 127.549 82.3621 127.438 82.31 127.348C79.475 122.472 64.0575 97.4778 38.9217 88.1778C38.7784 88.1243 38.6179 88.1902 38.5542 88.3289C38.5536 88.3302 38.5525 88.3326 38.5509 88.3361C38.3564 88.7639 30.7899 105.409 32.9658 127.523C32.9834 127.67 33.1082 127.782 33.2575 127.784ZM81.5517 127.203H33.5258C31.5833 106.667 38.0408 90.9503 38.9683 88.8404C63.1067 97.8788 78.1683 121.46 81.5517 127.203Z" fill="#231F20"/>
<path d="M79.0842 127.493C77.585 124.692 72.0842 116.781 65.5917 109.574C53.3942 96.0769 39.8142 91.6536 39.8142 91.6536C33.5084 108.986 35.7775 122.181 35.9 127.493H79.0842Z" fill="#231F20"/>
<path fill-rule="evenodd" clip-rule="evenodd" d="M35.9175 127.784H79.0842V127.796C79.1873 127.796 79.2829 127.742 79.3356 127.654C79.3884 127.565 79.3903 127.456 79.3408 127.366C77.9641 124.797 72.5742 116.88 65.8075 109.393C53.6975 95.9781 40.0417 91.4211 39.9017 91.3746C39.7524 91.3313 39.5948 91.4098 39.54 91.5548C34.1967 106.284 35.0133 118.124 35.4567 124.518C35.472 124.736 35.4876 124.95 35.5028 125.158C35.5682 126.054 35.6258 126.844 35.6258 127.499C35.6258 127.576 35.6567 127.649 35.7116 127.703C35.7665 127.756 35.8407 127.786 35.9175 127.784ZM78.5883 127.203H36.18C36.1583 126.491 36.1016 125.65 36.0376 124.702C36.0326 124.627 36.0276 124.552 36.0225 124.477C35.585 118.182 34.78 106.51 39.9892 92.0256C41.9492 92.7289 54.2925 97.5184 65.3758 109.765C71.7691 116.845 76.9142 124.297 78.5883 127.203Z" fill="#231F20"/>
<path d="M181.658 127.494L178.863 121.867H88.3767L85.6 127.494H28.5792V147.366H191.177V127.494H181.658Z" fill="white"/>
<path fill-rule="evenodd" clip-rule="evenodd" d="M28.5791 147.657H191.177C191.336 147.654 191.463 147.525 191.463 147.366V127.493C191.463 127.333 191.333 127.203 191.172 127.203H181.838L179.126 121.739C179.076 121.64 178.974 121.577 178.863 121.576H88.3766C88.2651 121.576 88.1632 121.639 88.1141 121.739L85.4191 127.203H28.5791C28.4181 127.203 28.2875 127.333 28.2875 127.493V147.366C28.2875 147.527 28.4181 147.657 28.5791 147.657ZM190.886 147.076H28.8708V127.784H85.6C85.7111 127.783 85.8124 127.72 85.8625 127.621L88.5575 122.158H178.682L181.395 127.621C181.445 127.72 181.546 127.783 181.657 127.784H190.886V147.076Z" fill="#231F20"/>
<rect x="68.2225" y="127.494" width="32.8417" height="19.8671" fill="#D1D3D4"/>
<path fill-rule="evenodd" clip-rule="evenodd" d="M68.2225 147.657H101.064C101.225 147.657 101.356 147.527 101.356 147.366V127.494C101.356 127.333 101.225 127.203 101.064 127.203H68.2225C68.0627 127.206 67.934 127.334 67.9308 127.494V147.366C67.9308 147.527 68.0614 147.657 68.2225 147.657ZM100.773 147.076H68.5142V127.784H100.773V147.076Z" fill="#231F20"/>
<path d="M152.503 128.964L174.191 147.366H152.503V128.964Z" fill="#D1D3D4"/>
<path fill-rule="evenodd" clip-rule="evenodd" d="M152.502 147.657H174.191C174.312 147.656 174.42 147.58 174.462 147.466C174.504 147.352 174.47 147.224 174.377 147.146L152.689 128.743C152.602 128.673 152.482 128.657 152.38 128.703C152.277 128.749 152.21 128.851 152.211 128.964V147.366C152.211 147.527 152.341 147.657 152.502 147.657ZM173.397 147.076H152.794V129.598L173.397 147.076Z" fill="#231F20"/>
<rect x="23.8833" y="131.103" width="44.3392" height="1.9995" fill="white"/>
<path fill-rule="evenodd" clip-rule="evenodd" d="M23.8891 133.393H68.2225C68.2998 133.393 68.374 133.363 68.4287 133.308C68.4834 133.254 68.5141 133.18 68.5141 133.103V131.103C68.5141 130.943 68.3836 130.812 68.2225 130.812H23.8891C23.7281 130.812 23.5975 130.943 23.5975 131.103V133.103C23.6006 133.262 23.7294 133.39 23.8891 133.393ZM67.925 132.812H24.175V131.394H67.925V132.812Z" fill="#231F20"/>
<rect x="19.6017" y="136.177" width="48.6267" height="3.52238" fill="white"/>
<path fill-rule="evenodd" clip-rule="evenodd" d="M19.6017 139.985H68.2225C68.3836 139.985 68.5142 139.854 68.5142 139.694V136.177C68.5142 136.017 68.3836 135.887 68.2225 135.887H19.6017C19.4406 135.887 19.31 136.017 19.31 136.177V139.694C19.31 139.854 19.4406 139.985 19.6017 139.985ZM67.9308 139.403H19.8933L19.9167 136.468H67.9308V139.403Z" fill="#231F20"/>
<rect x="19.6017" y="138.276" width="48.6267" height="4.38844" fill="#E7816B"/>
<path fill-rule="evenodd" clip-rule="evenodd" d="M19.6016 142.926H68.2225C68.2931 142.927 68.3614 142.9 68.4119 142.851C68.4624 142.802 68.4908 142.735 68.4908 142.664V138.276C68.4908 138.128 68.3707 138.008 68.2225 138.008H19.6016C19.4534 138.008 19.3333 138.128 19.3333 138.276V142.664C19.3333 142.735 19.3618 142.802 19.4122 142.851C19.4627 142.9 19.531 142.927 19.6016 142.926ZM67.96 142.397H19.8641V138.543H67.96V142.397Z" fill="#231F20"/>
<rect x="23.8833" y="133.103" width="44.3392" height="3.07481" fill="#E7816B"/>
<path fill-rule="evenodd" clip-rule="evenodd" d="M23.8892 136.439H68.2225C68.2931 136.441 68.3614 136.414 68.4119 136.364C68.4624 136.315 68.4908 136.248 68.4908 136.177V133.103C68.4924 133.031 68.4647 132.962 68.414 132.912C68.3633 132.861 68.2941 132.834 68.2225 132.835H23.8892C23.8185 132.835 23.7508 132.864 23.7014 132.914C23.652 132.964 23.6251 133.032 23.6267 133.103V136.177C23.6267 136.322 23.7442 136.439 23.8892 136.439ZM67.96 135.91H24.1517V133.364H67.96V135.91Z" fill="#231F20"/>
<rect x="28.5792" y="129.307" width="39.6492" height="1.79606" fill="#E7816B"/>
<path fill-rule="evenodd" clip-rule="evenodd" d="M28.5558 131.37H68.2225C68.3707 131.37 68.4908 131.251 68.4908 131.103V129.307C68.4908 129.236 68.4625 129.168 68.4122 129.118C68.3619 129.068 68.2936 129.04 68.2225 129.04H28.5558C28.4846 129.04 28.4164 129.068 28.3661 129.118C28.3157 129.168 28.2875 129.236 28.2875 129.307V131.103C28.2875 131.251 28.4076 131.37 28.5558 131.37ZM67.96 130.836H28.8416V129.574H67.96V130.836Z" fill="#231F20"/>
<path d="M85.6 127.494H111.36L113.74 121.867H88.3766L85.6 127.494Z" fill="#D1D3D4"/>
<path fill-rule="evenodd" clip-rule="evenodd" d="M85.6 127.784H111.36C111.473 127.779 111.574 127.709 111.617 127.604L113.997 121.983C114.043 121.898 114.043 121.795 113.997 121.71C113.943 121.627 113.851 121.577 113.752 121.576H88.3883C88.2768 121.576 88.1749 121.639 88.1258 121.739L85.3492 127.366C85.2991 127.452 85.2991 127.558 85.3492 127.645C85.404 127.73 85.4982 127.783 85.6 127.784ZM111.15 127.203H86.0667L88.5575 122.158H113.285L111.15 127.203Z" fill="#231F20"/>
<rect x="119.305" y="124.884" width="38.4825" height="1.73794" fill="#E7816B"/>
<rect x="169.997" y="133.585" width="16.1875" height="1.27294" fill="#E7816B"/>
<rect x="10.8225" y="141.06" width="57.4058" height="6.30656" fill="white"/>
<path fill-rule="evenodd" clip-rule="evenodd" d="M10.8225 147.657H68.2225C68.3836 147.657 68.5142 147.527 68.5142 147.366V141.06C68.5142 140.899 68.3836 140.769 68.2225 140.769H10.8225C10.6614 140.769 10.5308 140.899 10.5308 141.06V147.366C10.5308 147.527 10.6614 147.657 10.8225 147.657ZM67.9308 147.076H11.1142V141.35H67.9308V147.076Z" fill="#231F20"/>
<path d="M181.658 129.231H152.491C152.387 129.247 152.283 129.2 152.226 129.112C152.169 129.024 152.169 128.91 152.226 128.822C152.283 128.734 152.387 128.687 152.491 128.702H181.658C181.762 128.687 181.865 128.734 181.922 128.822C181.98 128.91 181.98 129.024 181.922 129.112C181.865 129.2 181.762 129.247 181.658 129.231Z" fill="#231F20"/>
<defs>
<linearGradient id="paint0_linear_1_2701" x1="0" y1="202" x2="202" y2="202" gradientUnits="userSpaceOnUse">
<stop stop-color="#5D0202" stop-opacity="0.01"/>
<stop offset="1" stop-color="#5D0202" stop-opacity="0.497569"/>
</linearGradient>
</defs>
</svg>
