<svg width="202" height="202" viewBox="0 0 202 202" fill="none" xmlns="http://www.w3.org/2000/svg">
<circle opacity="0.202683" cx="101" cy="101" r="101" transform="matrix(0 -1 -1 0 202 202)" fill="url(#paint0_linear_1_2191)"/>
<rect x="126.429" y="172.025" width="47.2303" height="65.0554" transform="rotate(-180 126.429 172.025)" fill="white"/>
<path fill-rule="evenodd" clip-rule="evenodd" d="M79.2113 172.359H126.435C126.524 172.361 126.609 172.326 126.671 172.263C126.732 172.2 126.766 172.114 126.762 172.025V106.951C126.762 106.774 126.619 106.63 126.442 106.63H79.2113C79.0343 106.63 78.8909 106.774 78.8909 106.951V172.038C78.8909 172.215 79.0343 172.359 79.2113 172.359ZM126.115 171.718H79.5253V107.291H126.115V171.718Z" fill="#231F20"/>
<path d="M124.34 114.594H81.294C81.1171 114.594 80.9736 114.451 80.9736 114.274C80.977 114.098 81.1185 113.957 81.294 113.953H124.34C124.517 113.953 124.66 114.097 124.66 114.274C124.66 114.359 124.626 114.44 124.566 114.501C124.506 114.561 124.425 114.594 124.34 114.594Z" fill="#D1D3D4"/>
<path d="M124.34 121.7H81.294C81.1185 121.696 80.977 121.555 80.9736 121.379C80.9736 121.202 81.1171 121.058 81.294 121.058H124.34C124.517 121.058 124.66 121.202 124.66 121.379C124.66 121.464 124.626 121.546 124.566 121.606C124.506 121.666 124.425 121.7 124.34 121.7Z" fill="#D1D3D4"/>
<path d="M124.34 128.798H81.294C81.1185 128.795 80.977 128.653 80.9736 128.478C80.9736 128.301 81.1171 128.157 81.294 128.157H124.34C124.517 128.157 124.66 128.301 124.66 128.478C124.66 128.563 124.626 128.644 124.566 128.704C124.506 128.764 124.425 128.798 124.34 128.798Z" fill="#D1D3D4"/>
<path d="M124.34 135.897H81.294C81.1171 135.897 80.9736 135.753 80.9736 135.576C80.9736 135.399 81.1171 135.256 81.294 135.256H124.34C124.517 135.256 124.66 135.399 124.66 135.576C124.66 135.753 124.517 135.897 124.34 135.897Z" fill="#D1D3D4"/>
<path d="M124.34 142.996H81.294C81.1171 142.996 80.9736 142.852 80.9736 142.675C80.977 142.499 81.1185 142.358 81.294 142.354H124.34C124.517 142.354 124.66 142.498 124.66 142.675C124.66 142.76 124.626 142.842 124.566 142.902C124.506 142.962 124.425 142.996 124.34 142.996Z" fill="#D1D3D4"/>
<path d="M124.34 150.101H81.294C81.1185 150.097 80.977 149.956 80.9736 149.78C80.9736 149.603 81.1171 149.46 81.294 149.46H124.34C124.517 149.46 124.66 149.603 124.66 149.78C124.66 149.865 124.626 149.947 124.566 150.007C124.506 150.067 124.425 150.101 124.34 150.101Z" fill="#D1D3D4"/>
<path d="M124.34 157.199H81.294C81.1185 157.196 80.977 157.055 80.9736 156.879C80.9736 156.702 81.1171 156.558 81.294 156.558H124.34C124.517 156.558 124.66 156.702 124.66 156.879C124.66 156.964 124.626 157.045 124.566 157.106C124.506 157.166 124.425 157.199 124.34 157.199Z" fill="#D1D3D4"/>
<path d="M124.34 164.298H81.294C81.1171 164.298 80.9736 164.155 80.9736 163.978C80.9736 163.8 81.1171 163.657 81.294 163.657H124.34C124.517 163.657 124.66 163.8 124.66 163.978C124.66 164.155 124.517 164.298 124.34 164.298Z" fill="#D1D3D4"/>
<rect x="126.435" y="106.964" width="40.2066" height="3.75776" transform="rotate(-180 126.435 106.964)" fill="#231F20"/>
<path fill-rule="evenodd" clip-rule="evenodd" d="M86.2221 107.291H126.435C126.523 107.289 126.606 107.252 126.667 107.188C126.727 107.124 126.759 107.039 126.756 106.951V103.212C126.756 103.035 126.612 102.892 126.435 102.892H86.2221C86.0452 102.892 85.9017 103.035 85.9017 103.212V106.97C85.9051 107.146 86.0466 107.287 86.2221 107.291ZM126.115 106.649H86.5425V103.533H126.115V106.649Z" fill="#231F20"/>
<rect x="56.9676" y="123.752" width="13.1565" height="48.2673" fill="white"/>
<path fill-rule="evenodd" clip-rule="evenodd" d="M56.9675 172.359H70.1241C70.2125 172.359 70.2971 172.323 70.3577 172.258C70.4184 172.194 70.4498 172.107 70.4445 172.019V123.752C70.4445 123.575 70.3011 123.431 70.1241 123.431H56.9675C56.792 123.434 56.6505 123.576 56.6471 123.752V172.038C56.6471 172.215 56.7906 172.359 56.9675 172.359ZM69.8229 171.718H57.3072L57.288 124.072H69.8229V171.718Z" fill="#231F20"/>
<rect x="31.6734" y="117.608" width="25.7299" height="54.417" fill="white"/>
<path fill-rule="evenodd" clip-rule="evenodd" d="M31.6734 172.359H57.4225C57.5098 172.359 57.5933 172.323 57.6538 172.26C57.7142 172.197 57.7465 172.113 57.743 172.025V117.608C57.743 117.431 57.5995 117.288 57.4225 117.288H31.6734C31.4964 117.288 31.353 117.431 31.353 117.608V172.038C31.353 172.215 31.4964 172.359 31.6734 172.359ZM57.1021 171.717H32.013L31.9938 117.929H57.1021V171.717Z" fill="#231F20"/>
<path d="M56.2626 124.04H32.8141C32.6371 124.04 32.4937 123.897 32.4937 123.719C32.4937 123.542 32.6371 123.399 32.8141 123.399H56.2626C56.4396 123.399 56.583 123.542 56.583 123.719C56.583 123.897 56.4396 124.04 56.2626 124.04Z" fill="#D1D3D4"/>
<path d="M56.2626 129.985H32.8141C32.6371 129.985 32.4937 129.841 32.4937 129.664C32.4937 129.487 32.6371 129.343 32.8141 129.343H56.2626C56.4396 129.343 56.583 129.487 56.583 129.664C56.583 129.841 56.4396 129.985 56.2626 129.985Z" fill="#D1D3D4"/>
<path d="M56.2626 135.923H32.8141C32.6371 135.923 32.4937 135.779 32.4937 135.602C32.4937 135.425 32.6371 135.281 32.8141 135.281H56.2626C56.4396 135.281 56.583 135.425 56.583 135.602C56.583 135.779 56.4396 135.923 56.2626 135.923Z" fill="#D1D3D4"/>
<path d="M56.2626 141.861H32.8141C32.6371 141.861 32.4937 141.717 32.4937 141.54C32.4937 141.363 32.6371 141.219 32.8141 141.219H56.2626C56.4396 141.219 56.583 141.363 56.583 141.54C56.583 141.717 56.4396 141.861 56.2626 141.861Z" fill="#D1D3D4"/>
<path d="M56.2626 147.799H32.8141C32.6371 147.799 32.4937 147.655 32.4937 147.478C32.4937 147.301 32.6371 147.157 32.8141 147.157H56.2626C56.4396 147.157 56.583 147.301 56.583 147.478C56.583 147.655 56.4396 147.799 56.2626 147.799Z" fill="#D1D3D4"/>
<path d="M56.2626 153.762H32.8141C32.6371 153.762 32.4937 153.619 32.4937 153.442C32.4937 153.265 32.6371 153.121 32.8141 153.121H56.2626C56.4396 153.121 56.583 153.265 56.583 153.442C56.583 153.619 56.4396 153.762 56.2626 153.762Z" fill="#D1D3D4"/>
<path d="M56.2626 159.675H32.8141C32.6371 159.675 32.4937 159.531 32.4937 159.354C32.4937 159.177 32.6371 159.033 32.8141 159.033H56.2626C56.4396 159.033 56.583 159.177 56.583 159.354C56.583 159.531 56.4396 159.675 56.2626 159.675Z" fill="#D1D3D4"/>
<path d="M56.2626 165.613H32.8141C32.6371 165.613 32.4937 165.469 32.4937 165.292C32.4937 165.115 32.6371 164.971 32.8141 164.971H56.2626C56.4396 164.971 56.583 165.115 56.583 165.292C56.583 165.469 56.4396 165.613 56.2626 165.613Z" fill="#D1D3D4"/>
<rect x="31.6734" y="114.466" width="21.9041" height="3.14215" fill="#231F20"/>
<path fill-rule="evenodd" clip-rule="evenodd" d="M31.6734 117.929H53.5775C53.7544 117.929 53.8979 117.785 53.8979 117.608V114.466C53.8979 114.289 53.7544 114.146 53.5775 114.146H31.6734C31.4964 114.146 31.353 114.289 31.353 114.466V117.608C31.353 117.785 31.4964 117.929 31.6734 117.929ZM53.257 117.288H31.9938V114.787H53.257V117.288Z" fill="#231F20"/>
<rect x="64.6833" y="128.035" width="2.42239" height="0.641256" fill="#D1D3D4"/>
<rect x="60.4345" y="135.05" width="2.42239" height="0.641256" fill="#D1D3D4"/>
<rect x="63.4593" y="141.713" width="2.42239" height="0.641256" fill="#D1D3D4"/>
<path d="M93.5149 157.417C87.5615 147.895 72.4055 141.123 54.6477 141.123C36.8899 141.123 21.7403 147.895 15.7676 157.417H93.5149Z" fill="#E7816B"/>
<path fill-rule="evenodd" clip-rule="evenodd" d="M15.7676 157.713H93.5149C93.5921 157.689 93.6567 157.636 93.6944 157.565C93.7457 157.471 93.7457 157.358 93.6944 157.264C87.5743 147.433 71.8287 140.828 54.6028 140.828C37.3769 140.828 21.657 147.433 15.5113 157.264C15.4561 157.357 15.4561 157.472 15.5113 157.565C15.5641 157.657 15.6619 157.713 15.7676 157.713ZM92.9766 157.129H16.3187C22.5606 147.709 37.8576 141.418 54.6477 141.418C71.4378 141.418 86.7412 147.709 92.9766 157.129Z" fill="#231F20"/>
<path d="M92.182 162.535H19.0616L15.8894 157.27H93.4124L92.182 162.535Z" fill="#231F20"/>
<path fill-rule="evenodd" clip-rule="evenodd" d="M19.0615 162.855H92.182C92.3418 162.869 92.4869 162.762 92.5216 162.605L93.7456 157.341C93.7689 157.247 93.7476 157.147 93.688 157.071C93.6255 156.994 93.5311 156.949 93.4316 156.949H15.8894C15.7752 156.949 15.6697 157.01 15.6138 157.11C15.5567 157.211 15.5567 157.335 15.6138 157.437L18.786 162.701C18.8445 162.798 18.9491 162.856 19.0615 162.855ZM91.9256 162.214H19.241L16.4597 157.591H93.0023L91.9256 162.214Z" fill="#231F20"/>
<rect x="17.3185" y="162.535" width="76.0875" height="9.49058" fill="#231F20"/>
<path fill-rule="evenodd" clip-rule="evenodd" d="M17.3185 172.359H93.406C93.583 172.359 93.7264 172.215 93.7264 172.038V162.548C93.7264 162.37 93.583 162.227 93.406 162.227H17.3185C17.1415 162.227 16.998 162.37 16.998 162.548V172.038C16.998 172.215 17.1415 172.359 17.3185 172.359ZM93.0856 171.718H17.6389V162.868H93.0856V171.718Z" fill="#231F20"/>
<path d="M87.5807 158.514C82.659 150.639 70.1305 145.048 55.4552 145.048C40.7798 145.048 28.2449 150.646 23.3232 158.514H87.5807Z" fill="#E7816B"/>
<path fill-rule="evenodd" clip-rule="evenodd" d="M23.3232 158.803H87.5807C87.6841 158.801 87.779 158.745 87.8307 158.655C87.882 158.564 87.882 158.452 87.8307 158.36C82.7423 150.216 69.7332 144.746 55.4552 144.746C41.1771 144.746 28.1616 150.216 23.0733 158.36C23.0166 158.45 23.0139 158.564 23.0661 158.656C23.1183 158.749 23.2171 158.805 23.3232 158.803ZM87.0424 158.251H23.8615C29.0395 150.492 41.6385 145.368 55.4552 145.368C69.2718 145.368 81.8644 150.556 87.0424 158.251Z" fill="#231F20"/>
<path fill-rule="evenodd" clip-rule="evenodd" d="M31.9618 158.835H78.9421C79.0639 158.846 79.182 158.789 79.2497 158.687C79.301 158.591 79.301 158.476 79.2497 158.379C75.5136 150.21 65.965 144.721 55.4744 144.721C44.9838 144.721 35.4288 150.21 31.6926 158.379C31.6414 158.476 31.6414 158.591 31.6926 158.687C31.753 158.777 31.8534 158.832 31.9618 158.835ZM78.4359 158.193H32.468C36.2747 150.498 45.4131 145.368 55.4552 145.368C65.4972 145.368 74.6613 150.498 78.4359 158.193Z" fill="#231F20"/>
<path fill-rule="evenodd" clip-rule="evenodd" d="M41.8244 158.835H69.0795C69.1799 158.833 69.2741 158.786 69.3359 158.706C69.3944 158.627 69.4133 158.526 69.3871 158.431C67.2147 150.229 61.6201 144.721 55.4552 144.721C49.2902 144.721 43.6892 150.229 41.5168 158.431C41.4907 158.526 41.5096 158.627 41.5681 158.706C41.6298 158.786 41.724 158.833 41.8244 158.835ZM68.663 158.193H42.2409C44.4134 150.498 49.694 145.368 55.4552 145.368C61.2164 145.368 66.4905 150.498 68.663 158.193Z" fill="#231F20"/>
<path fill-rule="evenodd" clip-rule="evenodd" d="M51.3922 158.835H59.5117C59.6013 158.834 59.6868 158.797 59.7488 158.732C59.8074 158.665 59.8374 158.577 59.8321 158.488C59.3002 151.832 57.916 144.721 55.4551 144.721C52.9943 144.721 51.5973 151.832 51.0718 158.488C51.0665 158.577 51.0964 158.665 51.1551 158.732C51.2171 158.797 51.3026 158.834 51.3922 158.835ZM59.1656 158.193H51.7382C52.4432 149.767 54.135 145.368 55.4551 145.368C56.7753 145.368 58.4607 149.767 59.1656 158.193Z" fill="#231F20"/>
<path d="M86.4785 162.74H24.4254L23.4129 158.386H87.491L86.4785 162.74Z" fill="white"/>
<path fill-rule="evenodd" clip-rule="evenodd" d="M24.4254 163.061H86.4785C86.6312 163.064 86.7653 162.96 86.7989 162.81L87.8114 158.463C87.8348 158.367 87.8136 158.265 87.7537 158.187C87.6913 158.109 87.5969 158.065 87.4974 158.065H23.4129C23.315 158.064 23.2221 158.109 23.163 158.187C23.1009 158.264 23.0773 158.366 23.0989 158.463L24.1114 162.81C24.1445 162.957 24.2751 163.061 24.4254 163.061ZM86.2029 162.419H24.6818L23.8166 158.706H87.068L86.2029 162.419Z" fill="#231F20"/>
<rect x="23.4129" y="162.74" width="64.0845" height="9.28538" fill="#E7816B"/>
<path fill-rule="evenodd" clip-rule="evenodd" d="M23.4065 172.32H87.491C87.5692 172.32 87.6442 172.289 87.6994 172.234C87.7547 172.179 87.7858 172.104 87.7858 172.025V162.74C87.7858 162.577 87.6538 162.445 87.491 162.445H23.4065C23.2437 162.445 23.1117 162.577 23.1117 162.74V172.025C23.1117 172.188 23.2437 172.32 23.4065 172.32ZM87.2026 171.718H23.7013V163.035H87.2026V171.718Z" fill="#231F20"/>
<path d="M87.0809 160.887H25.6174C25.4405 160.887 25.297 160.743 25.297 160.566C25.297 160.389 25.4405 160.245 25.6174 160.245H87.0809C87.2578 160.245 87.4013 160.389 87.4013 160.566C87.4013 160.743 87.2578 160.887 87.0809 160.887Z" fill="#D1D3D4"/>
<rect x="25.9122" y="165.35" width="12.1761" height="6.67547" fill="#231F20"/>
<path fill-rule="evenodd" clip-rule="evenodd" d="M25.9186 172.359H38.0947C38.1819 172.359 38.2654 172.323 38.3259 172.26C38.3864 172.197 38.4186 172.113 38.4151 172.025V165.35C38.4117 165.174 38.2702 165.033 38.0947 165.029H25.9186C25.7431 165.033 25.6016 165.174 25.5982 165.35V172.038C25.5982 172.215 25.7416 172.359 25.9186 172.359ZM37.7678 171.717H26.2326V165.683H37.7678V171.717Z" fill="#231F20"/>
<path d="M29.0267 172.359C28.8497 172.359 28.7063 172.215 28.7063 172.038V165.35C28.7063 165.173 28.8497 165.029 29.0267 165.029C29.2037 165.029 29.3471 165.173 29.3471 165.35V172.025C29.3506 172.113 29.3184 172.197 29.2579 172.26C29.1974 172.323 29.1139 172.359 29.0267 172.359Z" fill="white"/>
<path d="M32.0066 172.359C31.8297 172.359 31.6862 172.215 31.6862 172.038V165.35C31.6862 165.173 31.8297 165.029 32.0066 165.029C32.1822 165.033 32.3237 165.174 32.3271 165.35V172.025C32.3306 172.113 32.2983 172.197 32.2379 172.26C32.1774 172.323 32.0939 172.359 32.0066 172.359Z" fill="white"/>
<path d="M34.993 172.359C34.816 172.359 34.6725 172.215 34.6725 172.038V165.35C34.676 165.174 34.8174 165.033 34.993 165.029C35.1699 165.029 35.3134 165.173 35.3134 165.35V172.025C35.3169 172.113 35.2847 172.197 35.2242 172.26C35.1637 172.323 35.0802 172.359 34.993 172.359Z" fill="white"/>
<rect x="41.5488" y="165.35" width="12.1761" height="6.67547" fill="#231F20"/>
<path fill-rule="evenodd" clip-rule="evenodd" d="M41.5488 172.359H53.7249C53.8121 172.359 53.8956 172.323 53.9561 172.26C54.0166 172.197 54.0488 172.113 54.0453 172.025V165.35C54.0453 165.173 53.9018 165.029 53.7249 165.029H41.5488C41.3719 165.029 41.2284 165.173 41.2284 165.35V172.038C41.2284 172.215 41.3719 172.359 41.5488 172.359ZM53.4045 171.717H41.8692V165.683H53.4045V171.717Z" fill="#231F20"/>
<path d="M44.6569 172.359C44.4799 172.359 44.3365 172.215 44.3365 172.038V165.35C44.3399 165.174 44.4814 165.033 44.6569 165.029C44.8339 165.029 44.9773 165.173 44.9773 165.35V172.025C44.9808 172.113 44.9486 172.197 44.8881 172.26C44.8277 172.323 44.7442 172.359 44.6569 172.359Z" fill="white"/>
<path d="M47.6368 172.359C47.4599 172.359 47.3164 172.215 47.3164 172.038V165.35C47.3164 165.173 47.4599 165.029 47.6368 165.029C47.8138 165.029 47.9573 165.173 47.9573 165.35V172.025C47.9607 172.113 47.9285 172.197 47.8681 172.26C47.8076 172.323 47.7241 172.359 47.6368 172.359Z" fill="white"/>
<path d="M50.6168 172.359C50.4398 172.359 50.2964 172.215 50.2964 172.038V165.35C50.2964 165.173 50.4398 165.029 50.6168 165.029C50.7923 165.033 50.9338 165.174 50.9372 165.35V172.025C50.9407 172.113 50.9085 172.197 50.848 172.26C50.7875 172.323 50.704 172.359 50.6168 172.359Z" fill="white"/>
<rect x="57.179" y="165.35" width="12.1761" height="6.67547" fill="#231F20"/>
<path fill-rule="evenodd" clip-rule="evenodd" d="M57.179 172.359H69.3551C69.4423 172.359 69.5258 172.323 69.5863 172.26C69.6468 172.197 69.679 172.113 69.6755 172.025V165.35C69.6755 165.173 69.5321 165.029 69.3551 165.029H57.179C57.0021 165.029 56.8586 165.173 56.8586 165.35V172.038C56.8586 172.215 57.0021 172.359 57.179 172.359ZM69.0347 171.717H57.4995V165.683H69.0347V171.717Z" fill="#231F20"/>
<path d="M60.2935 172.359C60.1166 172.359 59.9731 172.215 59.9731 172.038V165.35C59.9731 165.173 60.1166 165.029 60.2935 165.029C60.4691 165.033 60.6105 165.174 60.614 165.35V172.025C60.6174 172.113 60.5852 172.197 60.5248 172.26C60.4643 172.323 60.3808 172.359 60.2935 172.359Z" fill="white"/>
<path d="M63.267 172.359C63.0901 172.359 62.9466 172.215 62.9466 172.038V165.35C62.95 165.174 63.0915 165.033 63.267 165.029C63.444 165.029 63.5875 165.173 63.5875 165.35V172.025C63.591 172.113 63.5587 172.197 63.4983 172.26C63.4378 172.323 63.3543 172.359 63.267 172.359Z" fill="white"/>
<path d="M66.247 172.359C66.07 172.359 65.9266 172.215 65.9266 172.038V165.35C65.9266 165.173 66.07 165.029 66.247 165.029C66.4225 165.033 66.564 165.174 66.5674 165.35V172.025C66.5709 172.113 66.5387 172.197 66.4782 172.26C66.4178 172.323 66.3342 172.359 66.247 172.359Z" fill="white"/>
<rect x="72.8092" y="165.35" width="12.1761" height="6.67547" fill="#231F20"/>
<path fill-rule="evenodd" clip-rule="evenodd" d="M72.8028 172.359H84.9789C85.0662 172.359 85.1497 172.323 85.2101 172.26C85.2706 172.197 85.3028 172.113 85.2993 172.025V165.35C85.2959 165.174 85.1544 165.033 84.9789 165.029H72.8028C72.6273 165.033 72.4858 165.174 72.4824 165.35V172.038C72.4824 172.215 72.6259 172.359 72.8028 172.359ZM84.6521 171.717H73.1169V165.683H84.6521V171.717Z" fill="#231F20"/>
<path d="M75.9238 172.359C75.7468 172.359 75.6033 172.215 75.6033 172.038V165.35C75.6033 165.173 75.7468 165.029 75.9238 165.029C76.0993 165.033 76.2408 165.174 76.2442 165.35V172.025C76.2477 172.113 76.2155 172.197 76.155 172.26C76.0945 172.323 76.011 172.359 75.9238 172.359Z" fill="white"/>
<path d="M78.8973 172.359C78.7203 172.359 78.5768 172.215 78.5768 172.038V165.35C78.5803 165.174 78.7217 165.033 78.8973 165.029C79.0742 165.029 79.2177 165.173 79.2177 165.35V172.025C79.2212 172.113 79.189 172.197 79.1285 172.26C79.068 172.323 78.9845 172.359 78.8973 172.359Z" fill="white"/>
<path d="M81.8772 172.359C81.7002 172.359 81.5568 172.215 81.5568 172.038V165.35C81.5568 165.173 81.7002 165.029 81.8772 165.029C82.0541 165.029 82.1976 165.173 82.1976 165.35V172.025C82.2011 172.113 82.1689 172.197 82.1084 172.26C82.0479 172.323 81.9644 172.359 81.8772 172.359Z" fill="white"/>
<path d="M95.5528 36.8358C95.3759 36.8358 95.2324 36.6922 95.2324 36.5152V30.9106C95.2324 30.7335 95.3759 30.59 95.5528 30.59C95.7284 30.5934 95.8699 30.7349 95.8733 30.9106V36.5152C95.8699 36.6908 95.7284 36.8324 95.5528 36.8358Z" fill="#231F20"/>
<rect x="92.9446" y="63.916" width="5.21648" height="3.61027" fill="#E7816B"/>
<path fill-rule="evenodd" clip-rule="evenodd" d="M92.9446 67.8341H98.1611C98.2404 67.8324 98.3157 67.7988 98.37 67.7409C98.4243 67.683 98.4529 67.6056 98.4495 67.5263V63.916C98.4495 63.7566 98.3203 63.6274 98.1611 63.6274H92.9446C92.7843 63.6274 92.6533 63.7556 92.6498 63.916V67.5391C92.6532 67.7006 92.7832 67.8307 92.9446 67.8341ZM97.8663 67.2441H93.2394V64.211H97.8663V67.2441Z" fill="#231F20"/>
<rect x="91.9193" y="61.5883" width="7.26718" height="2.33417" fill="white"/>
<path fill-rule="evenodd" clip-rule="evenodd" d="M91.9192 64.2367H99.1864C99.2714 64.2367 99.3529 64.2029 99.413 64.1427C99.4731 64.0826 99.5068 64.0011 99.5068 63.916V61.5883C99.5068 61.4112 99.3634 61.2676 99.1864 61.2676H91.9192C91.7423 61.2676 91.5988 61.4112 91.5988 61.5883V63.916C91.5988 64.0931 91.7423 64.2367 91.9192 64.2367ZM98.866 63.5954H92.2397V61.9089H98.866V63.5954Z" fill="#231F20"/>
<path d="M94.1494 41.4272H96.9563L97.5202 61.5883H93.5854L94.1494 41.4272Z" fill="#E7816B"/>
<path fill-rule="evenodd" clip-rule="evenodd" d="M93.5854 61.8768H97.5202C97.5924 61.8735 97.6608 61.8439 97.7125 61.7935C97.7647 61.7352 97.7942 61.6601 97.7958 61.5818L97.2511 41.4208C97.2476 41.2604 97.1166 41.1322 96.9563 41.1322H94.1494C93.989 41.1322 93.8581 41.2604 93.8546 41.4208L93.2907 61.5818C93.289 61.6607 93.319 61.7369 93.374 61.7935C93.4292 61.8504 93.5062 61.8808 93.5854 61.8768ZM97.219 61.2933H93.8866L94.4314 41.7222H96.6679L97.219 61.2933Z" fill="#231F20"/>
<path d="M98.4687 49.9879C98.4687 50.3727 98.1611 50.7254 97.6548 50.9819H93.4445C92.9382 50.7254 92.6306 50.3727 92.6306 49.9879C92.6808 49.5665 92.9556 49.2055 93.3483 49.0453H97.7958C98.1694 49.2201 98.4246 49.5776 98.4687 49.9879Z" fill="white"/>
<path fill-rule="evenodd" clip-rule="evenodd" d="M93.4444 51.3025H97.6548C97.7031 51.315 97.7539 51.315 97.8022 51.3025C98.3483 51.0979 98.731 50.6006 98.7891 50.02C98.7426 49.4836 98.4089 49.0146 97.9175 48.7952C97.8683 48.7689 97.8131 48.7556 97.7573 48.7567H93.3483C93.2925 48.7556 93.2374 48.7689 93.1881 48.7952C92.6942 49.0128 92.3578 49.4821 92.3102 50.02C92.3694 50.6022 92.7548 51.0998 93.3035 51.3025C93.3496 51.315 93.3983 51.315 93.4444 51.3025ZM97.5779 50.6612H93.5278C93.1625 50.4625 92.951 50.315 92.951 50.02C92.951 49.725 93.2266 49.507 93.4316 49.3787H97.674C97.9752 49.5903 98.1482 49.8212 98.1482 50.02C98.1482 50.2188 97.9432 50.4625 97.5779 50.6612Z" fill="#231F20"/>
<path d="M94.5659 35.9893H96.5397L96.6551 41.4272H94.4506L94.5659 35.9893Z" fill="#231F20"/>
<path fill-rule="evenodd" clip-rule="evenodd" d="M94.4506 41.7478H96.6551C96.7322 41.7392 96.8043 41.7054 96.8602 41.6516C96.9175 41.5884 96.9495 41.5062 96.9499 41.4208L96.8345 35.9829C96.8346 35.8985 96.8006 35.8176 96.7403 35.7584C96.68 35.6993 96.5985 35.667 96.5141 35.6687H94.5659C94.4816 35.667 94.4 35.6993 94.3398 35.7584C94.2795 35.8176 94.2455 35.8985 94.2455 35.9829L94.1302 41.4208C94.128 41.5066 94.1603 41.5898 94.2199 41.6516C94.281 41.713 94.364 41.7476 94.4506 41.7478ZM96.3283 41.1066H94.7774L94.88 36.31H96.2257L96.3283 41.1066Z" fill="#231F20"/>
<path d="M88.8624 67.3788H102.237C102.842 67.3788 103.333 67.8697 103.333 68.4753V70.2452H87.773V68.4753C87.773 67.8722 88.2597 67.3823 88.8624 67.3788V67.3788Z" fill="white"/>
<path fill-rule="evenodd" clip-rule="evenodd" d="M87.773 70.5658H103.333C103.51 70.5658 103.653 70.4223 103.653 70.2452V68.4753C103.653 67.6927 103.019 67.0582 102.237 67.0582H88.8624C88.0827 67.0617 87.4525 67.6952 87.4525 68.4753V70.2452C87.4525 70.4223 87.596 70.5658 87.773 70.5658ZM103.012 69.9246H88.0934V68.4753C88.0934 68.0493 88.4367 67.7029 88.8624 67.6994H102.237C102.442 67.6994 102.64 67.7812 102.785 67.9267C102.931 68.0722 103.012 68.2696 103.012 68.4753V69.9246Z" fill="#231F20"/>
<rect x="92.3614" y="81.5185" width="6.38282" height="90.5068" fill="#231F20"/>
<path fill-rule="evenodd" clip-rule="evenodd" d="M92.3358 172.359H98.7443C98.8315 172.359 98.915 172.323 98.9755 172.26C99.036 172.197 99.0682 172.113 99.0647 172.025V81.5185C99.0613 81.3429 98.9198 81.2013 98.7443 81.1979H92.3358C92.1588 81.1979 92.0154 81.3414 92.0154 81.5185V172.038C92.0154 172.215 92.1588 172.359 92.3358 172.359ZM98.4366 171.718H92.669V81.8391H98.4366V171.718Z" fill="#231F20"/>
<path d="M97.8855 84.3465H93.2137C93.0368 84.3465 92.8933 84.2029 92.8933 84.0258C92.8967 83.8502 93.0382 83.7086 93.2137 83.7052H97.8855C98.0625 83.7052 98.2059 83.8488 98.2059 84.0258C98.2059 84.2029 98.0625 84.3465 97.8855 84.3465Z" fill="white"/>
<path d="M97.9111 85.7893H93.1945C93.0175 85.7893 92.8741 85.6457 92.8741 85.4686C92.8741 85.2916 93.0175 85.148 93.1945 85.148H97.9111C98.0881 85.148 98.2315 85.2916 98.2315 85.4686C98.2315 85.6457 98.0881 85.7893 97.9111 85.7893Z" fill="white"/>
<path d="M97.9304 87.3026H93.1689C92.9933 87.2992 92.8519 87.1577 92.8484 86.982C92.8484 86.8049 92.9919 86.6614 93.1689 86.6614H97.9304C98.1073 86.6614 98.2508 86.8049 98.2508 86.982C98.2508 87.1591 98.1073 87.3026 97.9304 87.3026Z" fill="white"/>
<path d="M97.956 88.8224H93.1496C92.9727 88.8224 92.8292 88.6789 92.8292 88.5018C92.8292 88.3247 92.9727 88.1812 93.1496 88.1812H97.956C98.1329 88.1812 98.2764 88.3247 98.2764 88.5018C98.2764 88.6789 98.1329 88.8224 97.956 88.8224Z" fill="white"/>
<path d="M97.9816 90.3742H93.124C92.947 90.3742 92.8036 90.2307 92.8036 90.0536C92.8036 89.8765 92.947 89.733 93.124 89.733H97.9816C98.1586 89.733 98.302 89.8765 98.302 90.0536C98.302 90.2307 98.1586 90.3742 97.9816 90.3742Z" fill="white"/>
<path d="M98.0072 91.9517H93.0984C92.9214 91.9517 92.778 91.8082 92.778 91.6311C92.778 91.454 92.9214 91.3105 93.0984 91.3105H98.0072C98.1828 91.3139 98.3243 91.4555 98.3277 91.6311C98.3277 91.8082 98.1842 91.9517 98.0072 91.9517Z" fill="white"/>
<path d="M98.0329 93.5676H93.0728C92.8958 93.5676 92.7523 93.4241 92.7523 93.247C92.7523 93.0699 92.8958 92.9264 93.0728 92.9264H98.0329C98.2099 92.9264 98.3533 93.0699 98.3533 93.247C98.3533 93.4241 98.2099 93.5676 98.0329 93.5676Z" fill="white"/>
<path d="M98.0585 95.2157H93.0471C92.8702 95.2157 92.7267 95.0722 92.7267 94.8951C92.7267 94.718 92.8702 94.5745 93.0471 94.5745H98.0585C98.2355 94.5745 98.379 94.718 98.379 94.8951C98.379 95.0722 98.2355 95.2157 98.0585 95.2157Z" fill="white"/>
<path d="M98.0842 96.8958H93.0215C92.8445 96.8958 92.7011 96.7522 92.7011 96.5751C92.7011 96.3981 92.8445 96.2545 93.0215 96.2545H98.0842C98.2597 96.2579 98.4012 96.3995 98.4046 96.5751C98.4046 96.7522 98.2611 96.8958 98.0842 96.8958Z" fill="white"/>
<path d="M98.1098 98.6143H92.9831C92.8061 98.6143 92.6626 98.4708 92.6626 98.2937C92.6626 98.1166 92.8061 97.9731 92.9831 97.9731H98.1098C98.2868 97.9731 98.4302 98.1166 98.4302 98.2937C98.4302 98.4708 98.2868 98.6143 98.1098 98.6143Z" fill="white"/>
<path d="M98.1354 100.365H92.9702C92.7933 100.365 92.6498 100.221 92.6498 100.044C92.6498 99.8673 92.7933 99.7238 92.9702 99.7238H98.1354C98.3124 99.7238 98.4559 99.8673 98.4559 100.044C98.4559 100.221 98.3124 100.365 98.1354 100.365Z" fill="white"/>
<path d="M98.1611 102.16H92.9382C92.7627 102.157 92.6212 102.015 92.6178 101.84C92.6178 101.663 92.7612 101.519 92.9382 101.519H98.1611C98.338 101.519 98.4815 101.663 98.4815 101.84C98.4815 102.017 98.338 102.16 98.1611 102.16Z" fill="white"/>
<path d="M98.1931 103.988H92.9126C92.7356 103.988 92.5921 103.845 92.5921 103.667C92.5921 103.49 92.7356 103.347 92.9126 103.347H98.1931C98.3687 103.35 98.5101 103.492 98.5135 103.667C98.5135 103.845 98.3701 103.988 98.1931 103.988Z" fill="white"/>
<path d="M98.2188 105.861H92.8805C92.705 105.857 92.5635 105.716 92.5601 105.54C92.5601 105.363 92.7035 105.219 92.8805 105.219H98.2188C98.3957 105.219 98.5392 105.363 98.5392 105.54C98.5392 105.717 98.3957 105.861 98.2188 105.861Z" fill="white"/>
<path d="M98.2508 107.772H92.8549C92.6779 107.772 92.5345 107.628 92.5345 107.451C92.5345 107.274 92.6779 107.13 92.8549 107.13H98.2508C98.4278 107.13 98.5712 107.274 98.5712 107.451C98.5712 107.628 98.4278 107.772 98.2508 107.772Z" fill="white"/>
<path d="M98.2828 109.727H92.8228C92.6459 109.727 92.5024 109.584 92.5024 109.407C92.5024 109.23 92.6459 109.086 92.8228 109.086H98.2828C98.4598 109.086 98.6033 109.23 98.6033 109.407C98.5998 109.582 98.4584 109.724 98.2828 109.727Z" fill="white"/>
<path d="M98.3149 111.728H92.7908C92.6138 111.728 92.4704 111.584 92.4704 111.407C92.4704 111.23 92.6138 111.087 92.7908 111.087H98.3149C98.4918 111.087 98.6353 111.23 98.6353 111.407C98.6319 111.583 98.4904 111.725 98.3149 111.728Z" fill="white"/>
<path d="M98.3405 113.767H92.7587C92.5818 113.767 92.4383 113.624 92.4383 113.447C92.4417 113.271 92.5832 113.129 92.7587 113.126H98.3405C98.5175 113.126 98.6609 113.27 98.6609 113.447C98.6609 113.624 98.5175 113.767 98.3405 113.767Z" fill="white"/>
<path d="M98.379 115.864H92.7267C92.5497 115.864 92.4063 115.721 92.4063 115.544C92.4063 115.366 92.5497 115.223 92.7267 115.223H98.379C98.5559 115.223 98.6994 115.366 98.6994 115.544C98.696 115.719 98.5545 115.861 98.379 115.864Z" fill="white"/>
<path d="M98.4366 118.006H92.669C92.4921 118.006 92.3486 117.862 92.3486 117.685C92.3486 117.508 92.4921 117.365 92.669 117.365H98.4366C98.6136 117.365 98.7571 117.508 98.7571 117.685C98.7536 117.861 98.6122 118.003 98.4366 118.006Z" fill="white"/>
<path d="M98.4366 120.199H92.669C92.4921 120.199 92.3486 120.055 92.3486 119.878C92.3486 119.701 92.4921 119.558 92.669 119.558H98.4366C98.6136 119.558 98.7571 119.701 98.7571 119.878C98.7571 120.055 98.6136 120.199 98.4366 120.199Z" fill="white"/>
<path d="M98.4751 122.443H92.6242C92.4486 122.44 92.3072 122.298 92.3037 122.123C92.3037 121.946 92.4472 121.802 92.6242 121.802H98.4751C98.652 121.802 98.7955 121.946 98.7955 122.123C98.7955 122.3 98.652 122.443 98.4751 122.443Z" fill="white"/>
<path d="M98.5135 124.739H92.5921C92.4152 124.739 92.2717 124.596 92.2717 124.418C92.2717 124.241 92.4152 124.098 92.5921 124.098H98.5135C98.6905 124.098 98.834 124.241 98.834 124.418C98.834 124.596 98.6905 124.739 98.5135 124.739Z" fill="white"/>
<rect x="92.5537" y="126.458" width="5.99831" height="0.641256" fill="white"/>
<rect x="92.5152" y="128.875" width="6.07521" height="0.641256" fill="white"/>
<rect x="92.4768" y="131.35" width="6.1457" height="0.641256" fill="white"/>
<rect x="92.4383" y="133.89" width="6.22901" height="0.641256" fill="white"/>
<rect x="92.3999" y="136.493" width="6.30592" height="0.641256" fill="white"/>
<rect x="92.355" y="139.167" width="6.38923" height="0.641256" fill="white"/>
<rect x="92.3166" y="141.918" width="6.47894" height="0.641256" fill="white"/>
<rect x="92.2717" y="144.733" width="6.56225" height="0.641256" fill="white"/>
<rect x="92.2268" y="147.632" width="6.65197" height="0.641256" fill="white"/>
<rect x="92.182" y="150.607" width="6.7481" height="0.641256" fill="white"/>
<rect x="92.1307" y="153.673" width="6.83782" height="0.641256" fill="white"/>
<rect x="92.0795" y="156.821" width="6.94035" height="0.641256" fill="white"/>
<rect x="92.0346" y="160.059" width="7.03648" height="0.641256" fill="white"/>
<rect x="91.9833" y="163.394" width="7.13901" height="0.641256" fill="white"/>
<rect x="91.9257" y="166.831" width="7.24796" height="0.641256" fill="white"/>
<path d="M92.669 172.025C95.0145 141.803 95.1427 81.5185 95.1427 81.5185H92.5281C88.8304 151.249 85.2801 168.088 84.0048 172.025H92.669Z" fill="#E7816B"/>
<path fill-rule="evenodd" clip-rule="evenodd" d="M83.992 172.32H92.669C92.8127 172.312 92.9292 172.201 92.9446 172.057C95.2645 142.168 95.4247 82.1341 95.4247 81.5313C95.4233 81.4549 95.3936 81.3818 95.3414 81.3261C95.2855 81.2694 95.2095 81.2371 95.1299 81.2363H92.5152C92.3598 81.2396 92.2336 81.363 92.2269 81.5185C88.5548 150.704 85.0494 167.799 83.7164 171.936C83.6868 172.024 83.7011 172.122 83.7549 172.198C83.8107 172.274 83.8983 172.319 83.992 172.32ZM92.3935 171.73H84.4021L84.3893 171.717C85.812 166.953 89.2277 148.902 92.7972 81.8135H94.8351C94.8223 86.4305 94.5916 142.861 92.3935 171.73Z" fill="#231F20"/>
<path d="M107.107 172.025C105.826 168.082 102.282 151.249 98.584 81.5185H95.9694C95.9694 81.5185 96.104 141.797 98.4495 172.025H107.107Z" fill="#E7816B"/>
<path fill-rule="evenodd" clip-rule="evenodd" d="M98.4366 172.32H107.107C107.2 172.315 107.283 172.265 107.332 172.186C107.388 172.11 107.404 172.012 107.376 171.923C106.037 167.799 102.538 150.704 98.866 81.5057C98.8591 81.3478 98.7291 81.2234 98.5712 81.2235H95.9566C95.8789 81.2246 95.805 81.257 95.7515 81.3133C95.6992 81.369 95.6695 81.4421 95.6682 81.5185C95.6682 82.1213 95.822 142.156 98.1483 172.045C98.1551 172.199 98.2822 172.32 98.4366 172.32ZM106.71 171.718H98.7186C96.5141 142.861 96.277 86.4305 96.2642 81.8006H98.3085C101.872 148.889 105.294 166.94 106.71 171.718Z" fill="#231F20"/>
<path d="M87.773 78.6521H103.333V80.422C103.333 81.0276 102.842 81.5185 102.237 81.5185H88.8624C88.2572 81.5185 87.7666 81.0276 87.7666 80.422V78.6521L87.773 78.6521Z" fill="white"/>
<path fill-rule="evenodd" clip-rule="evenodd" d="M88.8624 81.8391H102.237C103.019 81.8391 103.653 81.2046 103.653 80.4219V78.652C103.653 78.475 103.51 78.3314 103.333 78.3314H87.773C87.596 78.3314 87.4525 78.475 87.4525 78.652V80.4219C87.4525 81.2021 88.0827 81.8356 88.8624 81.8391ZM88.0934 80.4219V78.9727H103.012V80.4219C103.012 80.8504 102.665 81.1978 102.237 81.1978H88.8624C88.4367 81.1943 88.0934 80.848 88.0934 80.4219Z" fill="#231F20"/>
<rect x="85.671" y="68.8152" width="19.7573" height="10.818" rx="3.18" fill="#E7816B"/>
<path fill-rule="evenodd" clip-rule="evenodd" d="M87.7153 79.9218H103.39C104.679 79.9218 105.723 78.8767 105.723 77.5876V70.8544C105.723 69.5653 104.679 68.5203 103.39 68.5203H87.7153C86.427 68.5203 85.3826 69.5653 85.3826 70.8544V77.5876C85.3826 78.8767 86.427 79.9218 87.7153 79.9218ZM86.4786 69.6252C86.8069 69.2979 87.2519 69.1149 87.7153 69.1166H103.39C104.352 69.1166 105.133 69.8926 105.14 70.8544V77.594C105.14 78.5609 104.357 79.3447 103.39 79.3447H87.7153C86.7491 79.3447 85.9658 78.5609 85.9658 77.594V70.8608C85.9658 70.3971 86.1503 69.9525 86.4786 69.6252Z" fill="#231F20"/>
<path d="M106.018 71.874H85.0878C84.9109 71.874 84.7674 71.7304 84.7674 71.5534C84.7674 71.3763 84.9109 71.2327 85.0878 71.2327H106.018C106.195 71.2327 106.338 71.3763 106.338 71.5534C106.338 71.7304 106.195 71.874 106.018 71.874Z" fill="#231F20"/>
<path d="M106.018 74.5416H85.0878C84.9109 74.5416 84.7674 74.3981 84.7674 74.221C84.7674 74.0439 84.9109 73.9004 85.0878 73.9004H106.018C106.193 73.9038 106.335 74.0454 106.338 74.221C106.338 74.3981 106.195 74.5416 106.018 74.5416Z" fill="#231F20"/>
<path d="M106.018 77.2092H85.0878C84.9109 77.2092 84.7674 77.0657 84.7674 76.8886C84.7674 76.7115 84.9109 76.568 85.0878 76.568H106.018C106.193 76.5714 106.335 76.713 106.338 76.8886C106.338 77.0657 106.195 77.2092 106.018 77.2092Z" fill="#231F20"/>
<path d="M134.497 122.559C134.32 122.559 134.177 122.415 134.177 122.238V111.189C134.177 111.012 134.32 110.869 134.497 110.869C134.674 110.869 134.817 111.012 134.817 111.189V122.238C134.817 122.415 134.674 122.559 134.497 122.559Z" fill="#231F20"/>
<rect x="131.209" y="123.758" width="13.1565" height="48.2673" fill="white"/>
<path fill-rule="evenodd" clip-rule="evenodd" d="M131.209 172.359H144.366C144.453 172.359 144.537 172.323 144.597 172.26C144.658 172.197 144.69 172.113 144.686 172.025V123.758C144.686 123.581 144.543 123.437 144.366 123.437H131.209C131.032 123.437 130.889 123.581 130.889 123.758V172.038C130.889 172.215 131.032 172.359 131.209 172.359ZM144.065 171.718H131.549L131.53 124.079H144.065V171.718Z" fill="#231F20"/>
<rect x="131.209" y="121.257" width="6.57507" height="2.5009" fill="#231F20"/>
<path fill-rule="evenodd" clip-rule="evenodd" d="M131.209 124.079H137.785C137.961 124.079 138.105 123.935 138.105 123.758V121.257C138.105 121.08 137.961 120.936 137.785 120.936H131.209C131.032 120.936 130.889 121.08 130.889 121.257V123.758C130.889 123.935 131.032 124.079 131.209 124.079ZM137.464 123.437H131.53V121.578H137.464V123.437Z" fill="#231F20"/>
<rect x="143.392" y="78.1711" width="39.4632" height="93.8542" fill="white"/>
<path fill-rule="evenodd" clip-rule="evenodd" d="M143.392 77.5299H182.855C183.209 77.5299 183.496 77.817 183.496 78.1712V172.025C183.496 172.379 183.209 172.667 182.855 172.667H143.392C143.038 172.667 142.751 172.379 142.751 172.025V78.1712C142.751 77.817 143.038 77.5299 143.392 77.5299ZM182.855 172.025V78.1712H143.392V172.025H182.855Z" fill="#231F20"/>
<rect x="143.392" y="85.1672" width="39.4632" height="0.641256" fill="#D1D3D4"/>
<rect x="143.392" y="92.7212" width="39.4632" height="0.641256" fill="#D1D3D4"/>
<rect x="143.392" y="100.282" width="39.4632" height="0.641256" fill="#D1D3D4"/>
<rect x="143.392" y="107.836" width="39.4632" height="0.641256" fill="#D1D3D4"/>
<rect x="143.392" y="115.396" width="39.4632" height="0.641256" fill="#D1D3D4"/>
<rect x="143.392" y="122.95" width="39.4632" height="0.641256" fill="#D1D3D4"/>
<rect x="143.392" y="130.51" width="39.4632" height="0.641256" fill="#D1D3D4"/>
<rect x="143.392" y="138.064" width="39.4632" height="0.641256" fill="#D1D3D4"/>
<rect x="143.392" y="145.618" width="39.4632" height="0.641256" fill="#D1D3D4"/>
<rect x="143.392" y="153.179" width="39.4632" height="0.641256" fill="#D1D3D4"/>
<rect x="143.392" y="160.733" width="39.4632" height="0.641256" fill="#D1D3D4"/>
<rect x="153.806" y="71.1045" width="18.6358" height="100.921" fill="white"/>
<path fill-rule="evenodd" clip-rule="evenodd" d="M153.806 172.359H172.441C172.529 172.359 172.612 172.323 172.673 172.26C172.733 172.197 172.765 172.113 172.762 172.025V71.1045C172.762 70.9274 172.618 70.7839 172.441 70.7839H153.806C153.629 70.7839 153.485 70.9274 153.485 71.1045V172.038C153.485 172.215 153.629 172.359 153.806 172.359ZM172.134 171.718H154.126V71.4251H172.134V171.718Z" fill="#231F20"/>
<path d="M172.441 81.9417H153.806C153.629 81.9417 153.485 81.7982 153.485 81.6211C153.485 81.444 153.629 81.3005 153.806 81.3005H172.441C172.618 81.3005 172.762 81.444 172.762 81.6211C172.762 81.7982 172.618 81.9417 172.441 81.9417Z" fill="#231F20"/>
<path d="M172.441 89.4701H153.806C153.629 89.4701 153.485 89.3265 153.485 89.1494C153.485 88.9723 153.629 88.8288 153.806 88.8288H172.441C172.618 88.8288 172.762 88.9723 172.762 89.1494C172.762 89.3265 172.618 89.4701 172.441 89.4701Z" fill="#231F20"/>
<path d="M172.441 97.0241H153.806C153.629 97.0241 153.485 96.8805 153.485 96.7034C153.485 96.5264 153.629 96.3828 153.806 96.3828H172.441C172.618 96.3828 172.762 96.5264 172.762 96.7034C172.762 96.8805 172.618 97.0241 172.441 97.0241Z" fill="#231F20"/>
<path d="M172.441 104.584H153.806C153.629 104.584 153.485 104.441 153.485 104.264C153.485 104.087 153.629 103.943 153.806 103.943H172.441C172.618 103.943 172.762 104.087 172.762 104.264C172.762 104.441 172.618 104.584 172.441 104.584Z" fill="#231F20"/>
<path d="M172.441 112.138H153.806C153.629 112.138 153.485 111.995 153.485 111.818C153.485 111.641 153.629 111.497 153.806 111.497H172.441C172.618 111.497 172.762 111.641 172.762 111.818C172.762 111.995 172.618 112.138 172.441 112.138Z" fill="#231F20"/>
<path d="M172.441 119.699H153.806C153.629 119.699 153.485 119.555 153.485 119.378C153.485 119.201 153.629 119.058 153.806 119.058H172.441C172.618 119.058 172.762 119.201 172.762 119.378C172.762 119.555 172.618 119.699 172.441 119.699Z" fill="#231F20"/>
<path d="M172.441 127.253H153.806C153.629 127.253 153.485 127.109 153.485 126.932C153.485 126.755 153.629 126.612 153.806 126.612H172.441C172.618 126.612 172.762 126.755 172.762 126.932C172.762 127.109 172.618 127.253 172.441 127.253Z" fill="#231F20"/>
<path d="M172.441 134.807H153.806C153.629 134.807 153.485 134.663 153.485 134.486C153.485 134.309 153.629 134.166 153.806 134.166H172.441C172.618 134.166 172.762 134.309 172.762 134.486C172.762 134.663 172.618 134.807 172.441 134.807Z" fill="#231F20"/>
<path d="M172.441 142.367H153.806C153.629 142.367 153.485 142.224 153.485 142.047C153.485 141.87 153.629 141.726 153.806 141.726H172.441C172.618 141.726 172.762 141.87 172.762 142.047C172.762 142.224 172.618 142.367 172.441 142.367Z" fill="#231F20"/>
<path d="M172.441 149.915H153.806C153.629 149.915 153.485 149.771 153.485 149.594C153.485 149.417 153.629 149.274 153.806 149.274H172.441C172.618 149.274 172.762 149.417 172.762 149.594C172.762 149.771 172.618 149.915 172.441 149.915Z" fill="#231F20"/>
<path d="M172.441 157.482H153.806C153.629 157.482 153.485 157.338 153.485 157.161C153.485 156.984 153.629 156.84 153.806 156.84H172.441C172.618 156.84 172.762 156.984 172.762 157.161C172.762 157.338 172.618 157.482 172.441 157.482Z" fill="#231F20"/>
<rect x="156.542" y="68.1099" width="13.1565" height="3.02673" fill="#231F20"/>
<path fill-rule="evenodd" clip-rule="evenodd" d="M156.542 71.4636H169.699C169.876 71.4636 170.019 71.32 170.019 71.143V68.1098C170.019 67.9327 169.876 67.7892 169.699 67.7892H156.542C156.367 67.7926 156.225 67.9342 156.222 68.1098V71.143C156.225 71.3186 156.367 71.4602 156.542 71.4636ZM169.378 70.8223H156.882L156.862 68.4304H169.378V70.8223Z" fill="#231F20"/>
<rect x="134.606" y="130.805" width="2.42239" height="0.641256" fill="#D1D3D4"/>
<rect x="137.938" y="138.077" width="2.42239" height="0.641256" fill="#D1D3D4"/>
<rect x="134.305" y="145.349" width="2.42239" height="0.641256" fill="#D1D3D4"/>
<rect x="135.516" y="156.257" width="2.42239" height="0.641256" fill="#D1D3D4"/>
<rect x="113.112" y="164.959" width="72.4604" height="7.06664" fill="#E7816B"/>
<path fill-rule="evenodd" clip-rule="evenodd" d="M113.112 172.32H185.592C185.754 172.32 185.886 172.188 185.886 172.025V164.972C185.886 164.894 185.855 164.819 185.8 164.765C185.744 164.711 185.669 164.681 185.592 164.683H113.112C112.952 164.683 112.821 164.811 112.817 164.972V172.025C112.821 172.187 112.951 172.317 113.112 172.32ZM185.284 171.718H113.407V165.241H185.284V171.718Z" fill="#231F20"/>
<path d="M132.574 160.72C132.574 160.72 136.83 156.129 149.345 156.129C161.861 156.129 166.11 160.72 166.11 160.72H132.574Z" fill="#E7816B"/>
<path fill-rule="evenodd" clip-rule="evenodd" d="M132.574 161.015H166.11C166.226 161.015 166.331 160.947 166.379 160.842C166.424 160.734 166.404 160.61 166.328 160.521C166.148 160.329 161.842 155.84 149.345 155.84C136.849 155.84 132.536 160.329 132.363 160.521C132.281 160.607 132.258 160.733 132.305 160.842C132.356 160.945 132.459 161.012 132.574 161.015ZM165.322 160.431H133.363C134.888 159.264 139.605 156.424 149.345 156.424C159.086 156.424 163.796 159.264 165.322 160.431Z" fill="#231F20"/>
<path fill-rule="evenodd" clip-rule="evenodd" d="M135.977 165.305H162.707C162.81 165.306 162.907 165.258 162.97 165.177L166.052 160.938C166.121 160.839 166.129 160.71 166.074 160.603C166.019 160.496 165.91 160.427 165.789 160.425H132.895C132.774 160.427 132.665 160.496 132.61 160.603C132.555 160.71 132.564 160.839 132.632 160.938L135.721 165.177C135.78 165.259 135.876 165.307 135.977 165.305ZM162.521 164.664H136.144L133.523 161.066H165.136L162.521 164.664Z" fill="#231F20"/>
<path d="M141.937 165.164L138.733 161.246L135.881 165.151L135.362 164.773L138.457 160.534C138.515 160.453 138.608 160.403 138.707 160.399C138.806 160.403 138.899 160.447 138.964 160.521L142.45 164.76L141.937 165.164Z" fill="#231F20"/>
<path d="M148.903 165.164L145.699 161.246L142.847 165.151L142.328 164.773L145.423 160.534C145.481 160.453 145.574 160.403 145.673 160.399C145.772 160.402 145.865 160.446 145.93 160.521L149.416 164.76L148.903 165.164Z" fill="#231F20"/>
<path d="M155.869 165.164L152.665 161.246L149.813 165.151L149.294 164.773L152.389 160.534C152.447 160.453 152.54 160.403 152.639 160.399C152.738 160.401 152.832 160.445 152.896 160.521L156.382 164.76L155.869 165.164Z" fill="#231F20"/>
<path d="M162.835 165.164L159.631 161.246L156.754 165.151L156.241 164.773L159.33 160.534C159.388 160.453 159.48 160.404 159.58 160.399C159.678 160.402 159.771 160.446 159.836 160.521L163.322 164.76L162.835 165.164Z" fill="#231F20"/>
<path d="M121.084 172.038H120.443C120.582 169.741 120.6 167.437 120.495 165.138C120.542 165.24 120.645 165.305 120.757 165.305V164.664L121.007 164.773C121.116 164.856 121.36 165.113 121.084 172.038Z" fill="#231F20"/>
<path d="M130.594 172.038H129.953C130.096 169.741 130.113 167.437 130.005 165.138C130.054 165.241 130.159 165.306 130.274 165.305V164.664L130.517 164.773C130.62 164.856 130.87 165.113 130.594 172.038Z" fill="#231F20"/>
<path d="M140.092 172.038H139.451C139.593 169.741 139.61 167.437 139.502 165.138C139.552 165.241 139.657 165.306 139.771 165.305V164.664L140.015 164.773C140.13 164.856 140.374 165.113 140.092 172.038Z" fill="#231F20"/>
<path d="M149.602 172.038H148.961C149.104 169.741 149.121 167.437 149.012 165.138C149.062 165.241 149.167 165.306 149.281 165.305V164.664L149.525 164.773C149.634 164.856 149.877 165.113 149.602 172.038Z" fill="#231F20"/>
<path d="M159.105 172.038H158.465C158.605 169.741 158.624 167.438 158.522 165.138C158.567 165.243 158.671 165.309 158.785 165.305V164.664L159.035 164.773C159.137 164.856 159.381 165.113 159.105 172.038Z" fill="#231F20"/>
<path d="M168.609 172.038H167.968C168.112 169.741 168.131 167.438 168.026 165.138C168.071 165.243 168.175 165.309 168.289 165.305V164.664L168.539 164.773C168.641 164.856 168.885 165.113 168.609 172.038Z" fill="#231F20"/>
<path d="M178.113 172.038H177.472C177.615 169.741 177.635 167.438 177.53 165.138C177.577 165.24 177.68 165.305 177.792 165.305V164.664L178.042 164.773C178.145 164.856 178.388 165.113 178.113 172.038Z" fill="#231F20"/>
<rect x="113.112" y="166.761" width="72.4604" height="0.641256" fill="#231F20"/>
<path d="M191.359 172.628H10.6409C10.4639 172.628 10.3204 172.485 10.3204 172.307C10.3204 172.13 10.4639 171.987 10.6409 171.987H191.359C191.536 171.987 191.68 172.13 191.68 172.307C191.68 172.485 191.536 172.628 191.359 172.628Z" fill="#231F20"/>
<defs>
<linearGradient id="paint0_linear_1_2191" x1="0" y1="202" x2="202" y2="202" gradientUnits="userSpaceOnUse">
<stop stop-color="#5D0202" stop-opacity="0.01"/>
<stop offset="1" stop-color="#5D0202" stop-opacity="0.497569"/>
</linearGradient>
</defs>
</svg>
