<svg width="202" height="202" viewBox="0 0 202 202" fill="none" xmlns="http://www.w3.org/2000/svg">
<circle opacity="0.202683" cx="101" cy="101" r="101" transform="matrix(0 1 1 0 0 0)" fill="url(#paint0_linear_1_2459)"/>
<path d="M64.2007 90.9337L68.9008 86.103L64.2007 90.9337Z" fill="white"/>
<path d="M64.2008 91.2037C64.1309 91.2042 64.0636 91.1768 64.0139 91.1274C63.9093 91.022 63.9093 90.8513 64.0139 90.7459L68.6849 85.9152C68.7893 85.8149 68.9538 85.8154 69.0575 85.9165C69.1612 86.0176 69.1668 86.1829 69.0703 86.2909L64.3701 91.1215C64.325 91.1681 64.2651 91.1972 64.2008 91.2037Z" fill="#231F20"/>
<path d="M68.9008 90.9337L64.2007 86.103L68.9008 90.9337Z" fill="white"/>
<path d="M68.9009 91.2037C68.8284 91.203 68.7591 91.1734 68.7082 91.1215L64.0372 86.2909C63.9873 86.2413 63.9592 86.1736 63.9592 86.1031C63.9592 86.0325 63.9873 85.9648 64.0372 85.9152C64.1421 85.81 64.3119 85.81 64.4168 85.9152L69.1169 90.7459C69.2185 90.8526 69.2185 91.0207 69.1169 91.1274C69.0603 91.1847 68.9807 91.2128 68.9009 91.2037Z" fill="#231F20"/>
<path d="M68.9009 90.9337L73.601 86.103L68.9009 90.9337Z" fill="white"/>
<path d="M68.9008 91.2037C68.8308 91.2049 68.7633 91.1774 68.714 91.1274C68.6124 91.0207 68.6124 90.8525 68.714 90.7459L73.385 85.9152C73.4343 85.865 73.5016 85.8368 73.5718 85.8368C73.642 85.8368 73.7093 85.865 73.7586 85.9152C73.8101 85.964 73.8392 86.032 73.8392 86.103C73.8392 86.1741 73.8101 86.2421 73.7586 86.2909L69.0877 91.1215C69.0382 91.172 68.9713 91.2014 68.9008 91.2037Z" fill="#231F20"/>
<path d="M73.601 90.9337L68.9009 86.103L73.601 90.9337Z" fill="white"/>
<path d="M73.6011 91.2037C73.5286 91.203 73.4593 91.1734 73.4084 91.1215L68.7374 86.2909C68.6409 86.1829 68.6465 86.0176 68.7502 85.9165C68.8539 85.8154 69.0184 85.8149 69.1228 85.9152L73.7938 90.7459C73.8455 90.7957 73.8748 90.8646 73.8748 90.9366C73.8748 91.0087 73.8455 91.0776 73.7938 91.1274C73.7439 91.1802 73.6734 91.2081 73.6011 91.2037Z" fill="#231F20"/>
<path d="M73.6011 90.9337L78.2954 86.103L73.6011 90.9337Z" fill="white"/>
<path d="M73.601 91.2037C73.5308 91.2064 73.4627 91.1786 73.4142 91.1274C73.3095 91.022 73.3095 90.8513 73.4142 90.7459L78.1144 85.9152C78.2207 85.8318 78.372 85.8405 78.4681 85.9356C78.5641 86.0307 78.5752 86.1827 78.4939 86.2909L73.7937 91.1215C73.7428 91.1734 73.6735 91.203 73.601 91.2037Z" fill="#231F20"/>
<path d="M78.2954 90.9337L73.6011 86.103L78.2954 90.9337Z" fill="white"/>
<path d="M78.3129 91.2037C78.2419 91.2041 78.174 91.1742 78.1261 91.1215L73.4259 86.2909C73.3446 86.1827 73.3556 86.0307 73.4517 85.9356C73.5478 85.8405 73.6991 85.8318 73.8054 85.9152L78.5056 90.7459C78.6103 90.8513 78.6103 91.022 78.5056 91.1274C78.4549 91.1789 78.3849 91.2065 78.3129 91.2037Z" fill="#231F20"/>
<path d="M78.2954 90.9337L82.9956 86.103L78.2954 90.9337Z" fill="white"/>
<path d="M78.3128 91.2037C78.2429 91.2042 78.1757 91.1768 78.126 91.1274C78.0213 91.022 78.0213 90.8513 78.126 90.7459L82.797 85.9152C82.9013 85.8149 83.0659 85.8154 83.1696 85.9165C83.2732 86.0176 83.2789 86.1829 83.1823 86.2909L78.5113 91.1215C78.459 91.1749 78.3874 91.2045 78.3128 91.2037Z" fill="#231F20"/>
<path d="M82.9956 90.9337L78.2954 86.103L82.9956 90.9337Z" fill="white"/>
<path d="M82.9839 91.2037C82.9114 91.203 82.8421 91.1734 82.7912 91.1215L78.1202 86.2909C78.0703 86.2413 78.0422 86.1736 78.0422 86.1031C78.0422 86.0325 78.0703 85.9648 78.1202 85.9152C78.2251 85.81 78.3949 85.81 78.4998 85.9152L83.1707 90.7459C83.2723 90.8526 83.2723 91.0207 83.1707 91.1274C83.121 91.1768 83.0538 91.2043 82.9839 91.2037Z" fill="#231F20"/>
<path d="M82.9955 90.9337L87.6956 86.103L82.9955 90.9337Z" fill="white"/>
<path d="M82.9838 91.2037C82.9138 91.2049 82.8463 91.1774 82.797 91.1274C82.6954 91.0207 82.6954 90.8526 82.797 90.7459L87.4972 85.9152C87.602 85.81 87.7718 85.81 87.8767 85.9152C87.9266 85.9648 87.9547 86.0325 87.9547 86.1031C87.9547 86.1736 87.9266 86.2413 87.8767 86.2909L83.2057 91.1215C83.1479 91.1812 83.0664 91.2114 82.9838 91.2037Z" fill="#231F20"/>
<path d="M87.6956 90.9337L82.9955 86.103L87.6956 90.9337Z" fill="white"/>
<path d="M87.6957 91.2037C87.6232 91.203 87.5539 91.1734 87.503 91.1215L82.8029 86.2909C82.7063 86.1829 82.712 86.0176 82.8156 85.9165C82.9193 85.8154 83.0839 85.8149 83.1882 85.9152L87.8592 90.7459C87.9639 90.8513 87.9639 91.022 87.8592 91.1274C87.8154 91.1714 87.7575 91.1984 87.6957 91.2037Z" fill="#231F20"/>
<path d="M87.6957 90.9337L92.39 86.103L87.6957 90.9337Z" fill="white"/>
<path d="M87.6956 91.2037C87.6256 91.2049 87.5581 91.1773 87.5088 91.1274C87.4041 91.022 87.4041 90.8513 87.5088 90.7459L92.1798 85.9152C92.2861 85.8318 92.4374 85.8405 92.5335 85.9356C92.6296 86.0307 92.6406 86.1827 92.5593 86.2909L87.8591 91.1215C87.8156 91.1669 87.7579 91.1959 87.6956 91.2037Z" fill="#231F20"/>
<path d="M92.39 90.9337L87.6957 86.103L92.39 90.9337Z" fill="white"/>
<path d="M92.39 91.2037C92.3193 91.2027 92.2519 91.1731 92.2032 91.1215L87.5322 86.2909C87.4509 86.1827 87.462 86.0307 87.5581 85.9356C87.6541 85.8405 87.8055 85.8318 87.9118 85.9152L92.6119 90.7459C92.7166 90.8513 92.7166 91.022 92.6119 91.1274C92.5545 91.1872 92.4719 91.2156 92.39 91.2037Z" fill="#231F20"/>
<path d="M92.39 90.9337L97.0902 86.103L92.39 90.9337Z" fill="white"/>
<path d="M92.39 91.2037C92.3201 91.2042 92.2528 91.1768 92.2031 91.1274C92.0985 91.022 92.0985 90.8513 92.2031 90.7459L96.8741 85.9152C96.9785 85.8149 97.1431 85.8154 97.2467 85.9165C97.3504 86.0176 97.356 86.1829 97.2595 86.2909L92.5593 91.1215C92.5142 91.1681 92.4543 91.1972 92.39 91.2037Z" fill="#231F20"/>
<path d="M97.0902 90.9337L92.39 86.103L97.0902 90.9337Z" fill="white"/>
<path d="M97.0902 91.2037C97.0177 91.203 96.9484 91.1734 96.8975 91.1215L92.2266 86.2909C92.1767 86.2413 92.1486 86.1736 92.1486 86.1031C92.1486 86.0325 92.1767 85.9648 92.2266 85.9152C92.3314 85.81 92.5012 85.81 92.6061 85.9152L97.3063 90.7459C97.4078 90.8526 97.4078 91.0207 97.3063 91.1274C97.2496 91.1847 97.17 91.2128 97.0902 91.2037Z" fill="#231F20"/>
<path d="M103.811 90.9337L108.511 86.103L103.811 90.9337Z" fill="white"/>
<path d="M103.811 91.2037C103.741 91.2042 103.673 91.1768 103.624 91.1274C103.519 91.022 103.519 90.8513 103.624 90.7459L108.295 85.9152C108.399 85.8149 108.564 85.8154 108.667 85.9165C108.771 86.0176 108.777 86.1829 108.68 86.2909L104.003 91.1215C103.952 91.1734 103.883 91.203 103.811 91.2037Z" fill="#231F20"/>
<path d="M108.511 90.9337L103.811 86.103L108.511 90.9337Z" fill="white"/>
<path d="M108.511 91.2037C108.438 91.203 108.369 91.1734 108.318 91.1215L103.647 86.2909C103.597 86.2413 103.569 86.1736 103.569 86.1031C103.569 86.0325 103.597 85.9648 103.647 85.9152C103.752 85.81 103.922 85.81 104.027 85.9152L108.727 90.7459C108.828 90.8526 108.828 91.0207 108.727 91.1274C108.671 91.1855 108.591 91.2137 108.511 91.2037Z" fill="#231F20"/>
<path d="M108.511 90.9337L113.211 86.103L108.511 90.9337Z" fill="white"/>
<path d="M108.511 91.2037C108.441 91.2043 108.374 91.1768 108.324 91.1274C108.222 91.0207 108.222 90.8526 108.324 90.7459L113.024 85.9152C113.129 85.81 113.299 85.81 113.404 85.9152C113.453 85.9648 113.482 86.0325 113.482 86.1031C113.482 86.1736 113.453 86.2413 113.404 86.2909L108.733 91.1215C108.675 91.1812 108.593 91.2114 108.511 91.2037Z" fill="#231F20"/>
<path d="M113.211 90.9337L108.511 86.103L113.211 90.9337Z" fill="white"/>
<path d="M113.211 91.2037C113.138 91.203 113.069 91.1734 113.018 91.1215L108.318 86.2909C108.221 86.1829 108.227 86.0176 108.331 85.9165C108.434 85.8154 108.599 85.8149 108.703 85.9152L113.374 90.7459C113.479 90.8513 113.479 91.022 113.374 91.1274C113.33 91.1714 113.273 91.1984 113.211 91.2037Z" fill="#231F20"/>
<path d="M113.211 90.9337L117.905 86.103L113.211 90.9337Z" fill="white"/>
<path d="M113.211 91.2037C113.141 91.2049 113.073 91.1773 113.024 91.1274C112.922 91.0207 112.922 90.8525 113.024 90.7459L117.724 85.9152C117.831 85.8318 117.982 85.8405 118.078 85.9356C118.174 86.0307 118.185 86.1827 118.104 86.2909L113.433 91.1215C113.377 91.1844 113.294 91.2152 113.211 91.2037Z" fill="#231F20"/>
<path d="M117.905 90.9337L113.211 86.103L117.905 90.9337Z" fill="white"/>
<path d="M117.905 91.2037C117.835 91.2014 117.768 91.172 117.718 91.1215L113.018 86.2909C112.917 86.1862 112.917 86.0199 113.018 85.9152C113.067 85.865 113.135 85.8368 113.205 85.8368C113.275 85.8368 113.342 85.865 113.392 85.9152L118.063 90.7459C118.167 90.8513 118.167 91.022 118.063 91.1274C118.021 91.1714 117.965 91.1986 117.905 91.2037Z" fill="#231F20"/>
<path d="M117.905 90.9337L122.605 86.103L117.905 90.9337Z" fill="white"/>
<path d="M117.905 91.2037C117.837 91.2047 117.771 91.177 117.724 91.1274C117.672 91.0776 117.643 91.0087 117.643 90.9366C117.643 90.8646 117.672 90.7957 117.724 90.7459L122.395 85.9152C122.445 85.865 122.512 85.8368 122.582 85.8368C122.652 85.8368 122.719 85.865 122.769 85.9152C122.87 86.0199 122.87 86.1862 122.769 86.2909L118.069 91.1215C118.025 91.1669 117.967 91.1959 117.905 91.2037Z" fill="#231F20"/>
<path d="M122.605 90.9337L117.905 86.103L122.605 90.9337Z" fill="white"/>
<path d="M122.605 91.2037C122.534 91.2041 122.466 91.1743 122.419 91.1215L117.748 86.2909C117.696 86.2421 117.667 86.1741 117.667 86.103C117.667 86.032 117.696 85.964 117.748 85.9152C117.797 85.865 117.864 85.8368 117.934 85.8368C118.005 85.8368 118.072 85.865 118.121 85.9152L122.821 90.7459C122.923 90.8525 122.923 91.0207 122.821 91.1274C122.765 91.1855 122.685 91.2137 122.605 91.2037Z" fill="#231F20"/>
<path d="M122.605 90.9337L127.306 86.103L122.605 90.9337Z" fill="white"/>
<path d="M122.605 91.2037C122.535 91.2042 122.468 91.1768 122.418 91.1274C122.314 91.022 122.314 90.8513 122.418 90.7459L127.089 85.9152C127.194 85.8149 127.358 85.8154 127.462 85.9165C127.566 86.0176 127.571 86.1829 127.475 86.2909L122.775 91.1215C122.73 91.1681 122.67 91.1972 122.605 91.2037Z" fill="#231F20"/>
<path d="M127.306 90.9337L122.605 86.103L127.306 90.9337Z" fill="white"/>
<path d="M127.306 91.2037C127.233 91.203 127.164 91.1734 127.113 91.1215L122.442 86.2909C122.392 86.2413 122.364 86.1736 122.364 86.1031C122.364 86.0325 122.392 85.9648 122.442 85.9152C122.547 85.81 122.717 85.81 122.821 85.9152L127.522 90.7459C127.623 90.8526 127.623 91.0207 127.522 91.1274C127.465 91.1847 127.385 91.2128 127.306 91.2037Z" fill="#231F20"/>
<path d="M127.306 90.9337L132.006 86.103L127.306 90.9337Z" fill="white"/>
<path d="M127.306 91.2037C127.235 91.2049 127.168 91.1774 127.119 91.1274C127.017 91.0207 127.017 90.8525 127.119 90.7459L131.79 85.9152C131.839 85.865 131.906 85.8368 131.976 85.8368C132.047 85.8368 132.114 85.865 132.163 85.9152C132.215 85.964 132.244 86.032 132.244 86.103C132.244 86.1741 132.215 86.2421 132.163 86.2909L127.492 91.1215C127.443 91.172 127.376 91.2014 127.306 91.2037Z" fill="#231F20"/>
<path d="M132.006 90.9337L127.306 86.103L132.006 90.9337Z" fill="white"/>
<path d="M132.029 91.2037C131.957 91.203 131.887 91.1734 131.836 91.1215L127.165 86.2909C127.069 86.1829 127.075 86.0176 127.178 85.9165C127.282 85.8154 127.446 85.8149 127.551 85.9152L132.222 90.7459C132.273 90.7957 132.303 90.8646 132.303 90.9366C132.303 91.0087 132.273 91.0776 132.222 91.1274C132.172 91.1802 132.101 91.2081 132.029 91.2037Z" fill="#231F20"/>
<path d="M132.006 90.9337L136.7 86.103L132.006 90.9337Z" fill="white"/>
<path d="M132.029 91.2037C131.959 91.2049 131.892 91.1774 131.842 91.1274C131.738 91.022 131.738 90.8513 131.842 90.7459L136.542 85.9152C136.592 85.865 136.659 85.8368 136.729 85.8368C136.799 85.8368 136.867 85.865 136.916 85.9152C137.017 86.0199 137.017 86.1862 136.916 86.2909L132.245 91.1215C132.189 91.1795 132.11 91.2096 132.029 91.2037Z" fill="#231F20"/>
<path d="M136.7 90.9337L132.006 86.103L136.7 90.9337Z" fill="white"/>
<path d="M136.7 91.2037C136.629 91.2041 136.561 91.1742 136.513 91.1215L131.813 86.2909C131.732 86.1827 131.743 86.0307 131.839 85.9356C131.935 85.8405 132.086 85.8318 132.193 85.9152L136.863 90.7459C136.965 90.8525 136.965 91.0207 136.863 91.1274C136.82 91.1718 136.762 91.1989 136.7 91.2037Z" fill="#231F20"/>
<path d="M142.112 86.1852H58.8875C58.8168 86.1868 58.7484 86.1597 58.6979 86.1099C58.6474 86.0602 58.6189 85.9922 58.6189 85.9211C58.6189 85.772 58.7391 85.6511 58.8875 85.6511H142.112C142.261 85.6511 142.381 85.772 142.381 85.9211C142.381 85.9922 142.353 86.0602 142.302 86.1099C142.251 86.1597 142.183 86.1868 142.112 86.1852Z" fill="#231F20"/>
<rect x="62.2739" y="132.12" width="76.4462" height="2.67065" fill="white"/>
<path fill-rule="evenodd" clip-rule="evenodd" d="M62.274 135.043H138.726C138.869 135.043 138.986 134.929 138.989 134.785V132.109C138.989 131.963 138.871 131.845 138.726 131.845H62.274C62.1289 131.845 62.0112 131.963 62.0112 132.109V134.779C62.0112 134.925 62.1289 135.043 62.274 135.043ZM138.452 134.527H62.5484V132.39H138.452V134.527Z" fill="#231F20"/>
<path d="M138.726 134.797V150.645H129.571C129.571 150.645 123.318 136.44 100.5 136.44C77.6823 136.44 71.429 150.645 71.429 150.645H62.2739V134.797H138.726Z" fill="white"/>
<path fill-rule="evenodd" clip-rule="evenodd" d="M129.571 150.891H138.726C138.874 150.891 138.995 150.77 138.995 150.621V134.773C138.995 134.702 138.966 134.633 138.916 134.583C138.866 134.532 138.797 134.503 138.726 134.503H62.274C62.2027 134.503 62.1344 134.532 62.084 134.583C62.0337 134.633 62.0054 134.702 62.0054 134.773V150.621C62.0054 150.693 62.0337 150.762 62.084 150.812C62.1344 150.863 62.2027 150.891 62.274 150.891H71.429C71.5338 150.889 71.6284 150.828 71.6743 150.733C71.7327 150.592 78.1377 136.681 100.5 136.681C122.862 136.681 129.267 150.592 129.326 150.733C129.372 150.828 129.466 150.889 129.571 150.891ZM138.452 150.357H129.74V150.381C128.946 148.802 121.922 136.153 100.506 136.153C79.0894 136.153 72.0596 148.784 71.2656 150.363H62.5484V135.043H138.452V150.357Z" fill="#231F20"/>
<rect x="59.3488" y="90.9337" width="82.3025" height="2.44761" fill="#231F20"/>
<path fill-rule="evenodd" clip-rule="evenodd" d="M59.3254 93.6748H141.651C141.731 93.6748 141.807 93.6423 141.862 93.5847C141.917 93.5271 141.946 93.4494 141.943 93.3695V90.9337C141.943 90.7716 141.812 90.6402 141.651 90.6402H59.3254C59.1642 90.6402 59.0334 90.7716 59.0334 90.9337V93.3813C59.0334 93.5434 59.1642 93.6748 59.3254 93.6748ZM141.371 93.0878H59.6407L59.629 91.2272H141.371V93.0878Z" fill="#231F20"/>
<path d="M97.1895 84.935L100.5 82.64L103.811 84.935V90.9337H97.1895V84.935Z" fill="#E7816B"/>
<path fill-rule="evenodd" clip-rule="evenodd" d="M96.9209 90.9337C96.9209 91.0828 97.0411 91.2037 97.1895 91.2037H103.811C103.959 91.2037 104.079 91.0828 104.079 90.9337V84.935C104.079 84.8458 104.036 84.7623 103.962 84.7119L100.652 82.4169C100.559 82.3585 100.441 82.3585 100.348 82.4169L97.0377 84.7119C96.9645 84.7623 96.9208 84.8458 96.9209 84.935V90.9337ZM103.548 85.0758V90.6695H97.4522V85.0758L100.5 82.9628L103.548 85.0758Z" fill="#231F20"/>
<path d="M97.1894 89.6306C97.1187 89.6322 97.0504 89.6051 96.9998 89.5554C96.9493 89.5057 96.9208 89.4376 96.9208 89.3665V83.3326C96.9053 83.2277 96.9523 83.1234 97.0409 83.066C97.1295 83.0085 97.2434 83.0085 97.332 83.066C97.4207 83.1234 97.4676 83.2277 97.4521 83.3326V89.3665C97.4521 89.5124 97.3345 89.6306 97.1894 89.6306Z" fill="#231F20"/>
<path d="M103.811 89.6306C103.665 89.6306 103.548 89.5124 103.548 89.3665V83.3326C103.532 83.2277 103.579 83.1234 103.668 83.066C103.756 83.0085 103.87 83.0085 103.959 83.066C104.048 83.1234 104.095 83.2277 104.079 83.3326V89.3665C104.079 89.4376 104.051 89.5057 104 89.5554C103.95 89.6051 103.881 89.6322 103.811 89.6306Z" fill="#231F20"/>
<path d="M100.5 82.91C100.353 82.9069 100.234 82.7878 100.231 82.64V80.9731C100.231 80.8239 100.352 80.7031 100.5 80.7031C100.648 80.7031 100.769 80.8239 100.769 80.9731V82.64C100.765 82.7878 100.647 82.9069 100.5 82.91Z" fill="#231F20"/>
<path d="M10.3211 132.109V116.431C29.005 113.303 47.6889 90.3937 47.6889 90.3937L46.6613 94.9074C46.6613 94.9074 27.6329 116.525 10.3094 118.538" fill="#231F20"/>
<path fill-rule="evenodd" clip-rule="evenodd" d="M10.0292 132.12C10.0292 132.283 10.1599 132.414 10.3211 132.414C10.4006 132.414 10.4767 132.381 10.5318 132.324C10.5869 132.266 10.6162 132.189 10.613 132.109V118.802C27.7847 116.619 46.7021 95.3241 46.889 95.107C46.9245 95.0719 46.9489 95.0269 46.959 94.9778L47.9808 90.4641C48.0074 90.333 47.9458 90.1997 47.829 90.1354C47.7055 90.0778 47.5589 90.1116 47.4728 90.2176C47.471 90.2198 47.4674 90.2241 47.4621 90.2305C46.9229 90.8795 28.4584 113.104 10.2744 116.143C10.1329 116.169 10.0297 116.292 10.0292 116.437V118.538V132.12ZM10.613 118.204V116.678C26.979 113.79 43.4324 95.7761 47.1517 91.4913L46.4043 94.7665C45.3242 95.9757 27.1191 116.055 10.613 118.204Z" fill="#231F20"/>
<path d="M15.973 132.39C15.9023 132.39 15.8345 132.362 15.7851 132.311C15.7356 132.26 15.7086 132.192 15.7102 132.12V117.247C15.7298 117.115 15.8428 117.017 15.9759 117.017C16.109 117.017 16.222 117.115 16.2415 117.247V132.109C16.2465 132.183 16.2202 132.256 16.1691 132.309C16.118 132.363 16.0468 132.392 15.973 132.39Z" fill="#231F20"/>
<path d="M22.016 132.39C21.9443 132.392 21.8751 132.364 21.8243 132.313C21.7736 132.262 21.7458 132.193 21.7475 132.12V114.682C21.767 114.55 21.88 114.452 22.0131 114.452C22.1462 114.452 22.2592 114.55 22.2788 114.682V132.109C22.2836 132.182 22.2581 132.254 22.2083 132.307C22.1585 132.36 22.0889 132.391 22.016 132.39Z" fill="#231F20"/>
<path d="M28.3277 132.39C28.2565 132.39 28.1882 132.362 28.1378 132.311C28.0874 132.261 28.0591 132.192 28.0591 132.12V110.978C28.0591 110.829 28.1794 110.708 28.3277 110.708C28.476 110.708 28.5963 110.829 28.5963 110.978V132.109C28.5995 132.182 28.5726 132.254 28.5219 132.307C28.4711 132.36 28.401 132.39 28.3277 132.39Z" fill="#231F20"/>
<path d="M34.6393 132.39C34.5686 132.39 34.5009 132.362 34.4515 132.311C34.402 132.26 34.375 132.191 34.3766 132.12V106.283C34.3962 106.15 34.5092 106.052 34.6423 106.052C34.7753 106.052 34.8884 106.15 34.9079 106.283V132.109C34.9129 132.183 34.8866 132.256 34.8355 132.309C34.7844 132.363 34.7132 132.392 34.6393 132.39Z" fill="#231F20"/>
<path d="M54.777 53.2863C54.631 53.2863 54.5116 53.169 54.5085 53.0222V47.6926C54.5085 47.5435 54.6287 47.4226 54.777 47.4226C54.9254 47.4226 55.0456 47.5435 55.0456 47.6926V53.0222C55.0424 53.169 54.9231 53.2863 54.777 53.2863Z" fill="#231F20"/>
<path d="M54.0297 54.4308H55.5244L62.0054 81.2195H47.5487L54.0297 54.4308Z" fill="#231F20"/>
<path fill-rule="evenodd" clip-rule="evenodd" d="M47.5546 81.5072H62.0054C62.0981 81.5095 62.1866 81.4683 62.2448 81.3957C62.2991 81.326 62.3185 81.2351 62.2974 81.1491L55.8222 54.3663C55.7946 54.2329 55.6775 54.1373 55.542 54.1374H54.0297C53.8935 54.1389 53.7757 54.2332 53.7436 54.3663L47.2685 81.1491C47.2474 81.2351 47.2667 81.326 47.3211 81.3957C47.378 81.4666 47.4639 81.5077 47.5546 81.5072ZM61.6317 80.9202H47.9224L54.2574 54.7243H55.2967L61.6317 80.9202Z" fill="#231F20"/>
<rect x="54.0355" y="52.4235" width="1.48887" height="2.00739" fill="#231F20"/>
<path fill-rule="evenodd" clip-rule="evenodd" d="M54.0589 54.7244H55.5419C55.7032 54.7244 55.8339 54.593 55.8339 54.4309V52.4235C55.8339 52.2614 55.7032 52.13 55.5419 52.13H54.0589C53.8977 52.13 53.767 52.2614 53.767 52.4235V54.4309C53.767 54.593 53.8977 54.7244 54.0589 54.7244ZM55.2734 54.1374H54.3742V52.717H55.2734V54.1374Z" fill="#231F20"/>
<path d="M57.9358 80.3391V73.9941L54.777 68.6528L51.6183 73.9941V80.3391H48.5822V131.117H60.9719V80.3391H57.9358Z" fill="#E7816B"/>
<path fill-rule="evenodd" clip-rule="evenodd" d="M48.588 131.387H60.9719C61.1157 131.384 61.2316 131.267 61.2347 131.123V80.345C61.2347 80.1991 61.1171 80.0809 60.9719 80.0809H58.1986V74C58.1988 73.9527 58.1868 73.9061 58.1635 73.865L55.0048 68.5237C54.9538 68.4475 54.8684 68.4018 54.7771 68.4018C54.6857 68.4018 54.6003 68.4475 54.5494 68.5237L51.3906 73.865C51.3674 73.9061 51.3553 73.9527 51.3556 74V80.075H48.588C48.5173 80.0734 48.449 80.1006 48.3985 80.1503C48.3479 80.2 48.3194 80.2681 48.3195 80.3391V131.117C48.3195 131.266 48.4397 131.387 48.588 131.387ZM60.7034 130.847H48.8508L48.7924 80.6091H51.5599C51.7083 80.6091 51.8285 80.4883 51.8285 80.3391V74.0646L54.7479 69.1752L57.6672 74.0646V80.3391C57.6703 80.4869 57.7888 80.606 57.9358 80.6091H60.7034V130.847Z" fill="#231F20"/>
<path d="M60.9719 85.2578H48.588C48.4837 85.2734 48.3799 85.2262 48.3228 85.1371C48.2656 85.048 48.2656 84.9335 48.3228 84.8444C48.3799 84.7553 48.4837 84.7081 48.588 84.7237H60.9719C61.1035 84.7434 61.201 84.857 61.201 84.9907C61.201 85.1245 61.1035 85.2381 60.9719 85.2578Z" fill="#231F20"/>
<path d="M52.5876 94.9367H50.6316V88.5741C50.6316 88.0283 51.6125 87.1478 51.6125 87.1478C51.6125 87.1478 52.5876 88.0283 52.5876 88.5741V94.9367Z" fill="#231F20"/>
<path d="M55.7579 94.9367H53.7903V88.5741C53.7903 88.0283 54.7712 87.1478 54.7712 87.1478C54.7712 87.1478 55.7521 88.0283 55.7521 88.5741L55.7579 94.9367Z" fill="#231F20"/>
<path d="M58.9225 94.9367H56.9666V88.5741C56.9666 88.0283 57.9416 87.1478 57.9416 87.1478C57.9416 87.1478 58.9225 88.0283 58.9225 88.5741V94.9367Z" fill="#231F20"/>
<path d="M52.5876 106.87H50.6316V100.478C50.6316 99.9376 51.6125 99.0513 51.6125 99.0513C51.6125 99.0513 52.5876 99.9376 52.5876 100.478V106.87Z" fill="#231F20"/>
<path d="M55.7579 106.87H53.7903V100.478C53.7903 99.9376 54.7712 99.0513 54.7712 99.0513C54.7712 99.0513 55.7521 99.9376 55.7521 100.478L55.7579 106.87Z" fill="#231F20"/>
<path d="M58.9225 106.87H56.9666V100.478C56.9666 99.9376 57.9416 99.0513 57.9416 99.0513C57.9416 99.0513 58.9225 99.9376 58.9225 100.478V106.87Z" fill="#231F20"/>
<path d="M52.5876 118.755H50.6316V112.387C50.6316 111.841 51.6125 110.961 51.6125 110.961C51.6125 110.961 52.5876 111.841 52.5876 112.387V118.755Z" fill="#231F20"/>
<path d="M55.7579 118.755H53.7903V112.387C53.7903 111.841 54.7712 110.961 54.7712 110.961C54.7712 110.961 55.7521 111.841 55.7521 112.387L55.7579 118.755Z" fill="#231F20"/>
<path d="M58.9225 118.755H56.9666V112.387C56.9666 111.841 57.9416 110.961 57.9416 110.961C57.9416 110.961 58.9225 111.841 58.9225 112.387V118.755Z" fill="#231F20"/>
<path d="M60.5282 122.271H49.0259C48.8798 122.271 48.7605 122.154 48.7573 122.007C48.7604 121.859 48.8789 121.74 49.0259 121.737H60.5282C60.6752 121.74 60.7936 121.859 60.7967 122.007C60.7936 122.154 60.6742 122.271 60.5282 122.271Z" fill="#231F20"/>
<path d="M46.5269 60.6115L49.4813 71.9222H43.5725L46.5269 60.6115Z" fill="#231F20"/>
<path fill-rule="evenodd" clip-rule="evenodd" d="M43.5726 72.2392H49.4814C49.567 72.2339 49.6461 72.1909 49.6974 72.1218C49.7544 72.0511 49.774 71.9571 49.75 71.8694L46.7956 60.5587C46.7583 60.4277 46.6392 60.3373 46.5036 60.3373C46.3681 60.3373 46.2489 60.4277 46.2117 60.5587L43.2923 71.8694C43.2685 71.9563 43.2858 72.0493 43.3391 72.1218C43.3953 72.1943 43.4811 72.2374 43.5726 72.2392ZM49.1194 71.6522H43.9521L46.5445 61.7855L49.1194 71.6522Z" fill="#231F20"/>
<path d="M44.6353 71.9222L44.7579 90.7752L45.8847 93.7922V131.117H49.5106V93.4107L48.6289 91.4326V71.9222H44.6353Z" fill="#E7816B"/>
<path fill-rule="evenodd" clip-rule="evenodd" d="M45.8847 131.387H49.5105C49.6553 131.381 49.7703 131.262 49.7733 131.117V93.4106C49.7793 93.3757 49.7793 93.3399 49.7733 93.305L48.915 91.3739V71.9222C48.915 71.773 48.7947 71.6522 48.6464 71.6522H44.6527C44.583 71.6522 44.516 71.6796 44.4659 71.7285C44.4143 71.7796 44.3849 71.8493 44.3842 71.9222L44.5126 90.7752C44.507 90.8063 44.507 90.8381 44.5126 90.8691L45.6161 93.8391V131.117C45.6192 131.265 45.7377 131.384 45.8847 131.387ZM49.242 130.847H46.1533L46.1591 93.7863C46.1641 93.7552 46.1641 93.7235 46.1591 93.6924L45.0498 90.7224L44.9272 72.1863H48.3837V91.4326C48.3782 91.4696 48.3782 91.5071 48.3837 91.5441L49.242 93.4693V130.847Z" fill="#231F20"/>
<path d="M48.6289 84.442H44.717C44.6127 84.4575 44.509 84.4103 44.4518 84.3212C44.3946 84.2321 44.3946 84.1176 44.4518 84.0286C44.509 83.9395 44.6127 83.8922 44.717 83.9078H48.6289C48.7333 83.8922 48.837 83.9395 48.8941 84.0286C48.9513 84.1176 48.9513 84.2321 48.8941 84.3212C48.837 84.4103 48.7333 84.4575 48.6289 84.442Z" fill="#231F20"/>
<path d="M49.5106 94.0563H45.8847C45.7804 94.0719 45.6767 94.0247 45.6195 93.9356C45.5624 93.8465 45.5624 93.732 45.6195 93.6429C45.6767 93.5538 45.7804 93.5066 45.8847 93.5222H49.5106C49.6149 93.5066 49.7186 93.5538 49.7758 93.6429C49.8329 93.732 49.8329 93.8465 49.7758 93.9356C49.7186 94.0247 49.6149 94.0719 49.5106 94.0563Z" fill="#231F20"/>
<path d="M63.0271 60.6115L60.0728 71.9222H65.9815L63.0271 60.6115Z" fill="#231F20"/>
<path fill-rule="evenodd" clip-rule="evenodd" d="M59.8451 72.1218C59.899 72.194 59.983 72.2373 60.0728 72.2392H65.9816C66.0792 72.2429 66.1726 72.1992 66.2326 72.1218C66.2872 72.0499 66.3065 71.9572 66.2852 71.8694L63.3308 60.5587C63.2936 60.4277 63.1744 60.3373 63.0389 60.3373C62.9033 60.3373 62.7842 60.4277 62.7469 60.5587L59.7926 71.8694C59.7685 71.9571 59.7881 72.0511 59.8451 72.1218ZM63.0272 61.7855L65.6021 71.6522H60.4523L63.0272 61.7855Z" fill="#231F20"/>
<path d="M64.9189 71.9222L64.7963 90.7752L63.6694 93.7922V131.117H60.0436V93.4107L60.9252 91.4326V71.9222H64.9189Z" fill="#E7816B"/>
<path fill-rule="evenodd" clip-rule="evenodd" d="M60.0436 131.387H63.6694C63.8119 131.378 63.9236 131.26 63.9263 131.117V93.8391L65.0357 90.8691C65.0385 90.8379 65.0385 90.8065 65.0357 90.7752L65.1641 71.9222C65.1675 71.8496 65.1403 71.7789 65.0892 71.7276C65.038 71.6762 64.9678 71.6488 64.8956 71.6522H60.9019C60.7535 71.6522 60.6333 71.7731 60.6333 71.9222V91.3739L59.775 93.305C59.769 93.34 59.769 93.3757 59.775 93.4107V131.117C59.7781 131.265 59.8966 131.384 60.0436 131.387ZM63.4008 130.847H60.3122L60.318 93.4694L61.1763 91.5441C61.1846 91.5074 61.1846 91.4693 61.1763 91.4326V72.1863H64.6328L64.5102 90.7224L63.4008 93.6924C63.3958 93.7235 63.3958 93.7552 63.4008 93.7863V130.847Z" fill="#231F20"/>
<path d="M64.8372 84.442H60.9253C60.8209 84.4575 60.7172 84.4103 60.6601 84.3212C60.6029 84.2321 60.6029 84.1176 60.6601 84.0286C60.7172 83.9395 60.8209 83.8922 60.9253 83.9078H64.8372C64.9415 83.8922 65.0452 83.9395 65.1024 84.0286C65.1596 84.1176 65.1596 84.2321 65.1024 84.3212C65.0452 84.4103 64.9415 84.4575 64.8372 84.442Z" fill="#231F20"/>
<path d="M63.6694 94.0563H60.0435C59.9392 94.0719 59.8355 94.0247 59.7783 93.9356C59.7212 93.8465 59.7212 93.732 59.7783 93.6429C59.8355 93.5538 59.9392 93.5066 60.0435 93.5222H63.6694C63.7737 93.5066 63.8774 93.5538 63.9346 93.6429C63.9917 93.732 63.9917 93.8465 63.9346 93.9356C63.8774 94.0247 63.7737 94.0719 63.6694 94.0563Z" fill="#231F20"/>
<path d="M46.5269 61.3452C46.3786 61.3452 46.2583 61.2244 46.2583 61.0752V58.4398C46.2583 58.2907 46.3786 58.1698 46.5269 58.1698C46.6753 58.1698 46.7955 58.2907 46.7955 58.4398V61.087C46.7892 61.2315 46.6708 61.3454 46.5269 61.3452Z" fill="#231F20"/>
<path d="M63.0272 61.3452C62.9565 61.3452 62.8887 61.3166 62.8393 61.2658C62.7898 61.215 62.7629 61.1463 62.7644 61.0752V58.4398C62.7489 58.3349 62.7959 58.2306 62.8845 58.1732C62.9732 58.1157 63.087 58.1157 63.1757 58.1732C63.2643 58.2306 63.3113 58.3349 63.2958 58.4398V61.0869C63.2942 61.157 63.2651 61.2236 63.2147 61.272C63.1643 61.3204 63.0969 61.3468 63.0272 61.3452Z" fill="#231F20"/>
<rect x="41.8268" y="131.117" width="25.8772" height="19.5339" fill="#E7816B"/>
<path fill-rule="evenodd" clip-rule="evenodd" d="M41.8268 150.891H67.7098C67.8475 150.892 67.9634 150.788 67.9784 150.651V131.117C67.9753 130.969 67.8569 130.85 67.7098 130.847H41.8268C41.6808 130.85 41.5641 130.97 41.5641 131.117V150.627C41.5641 150.773 41.6817 150.891 41.8268 150.891ZM67.4588 150.381H42.1129V131.387H67.4588V150.381Z" fill="#231F20"/>
<path d="M55.7579 81.2137H53.7903V74.8511C53.7903 74.3052 54.7712 73.4248 54.7712 73.4248C54.7712 73.4248 55.7521 74.3052 55.7521 74.8511L55.7579 81.2137Z" fill="#231F20"/>
<path fill-rule="evenodd" clip-rule="evenodd" d="M53.7903 81.5072H55.758C55.9169 81.504 56.0441 81.3735 56.0441 81.2137V74.8511C56.0441 74.2055 55.1449 73.3661 54.9639 73.2076C54.8547 73.1076 54.6878 73.1076 54.5786 73.2076C54.3976 73.3661 53.4984 74.2055 53.4984 74.8511V81.2137C53.4984 81.3758 53.6291 81.5072 53.7903 81.5072ZM55.4661 80.9202H54.0881V74.8511C54.221 74.454 54.4592 74.1008 54.7771 73.8298C55.095 74.1008 55.3332 74.454 55.4661 74.8511V80.9202Z" fill="#231F20"/>
<rect x="10.3212" y="132.12" width="31.5057" height="2.67065" fill="white"/>
<path fill-rule="evenodd" clip-rule="evenodd" d="M10.2978 135.043H41.8268C41.8965 135.045 41.964 135.019 42.0143 134.97C42.0647 134.922 42.0939 134.855 42.0954 134.785V132.109C42.0954 132.038 42.0669 131.97 42.0164 131.92C41.9658 131.87 41.8975 131.843 41.8268 131.845H10.2978C10.2281 131.845 10.1613 131.872 10.112 131.922C10.0627 131.971 10.035 132.039 10.035 132.109V134.779C10.035 134.925 10.1527 135.043 10.2978 135.043ZM41.5641 134.527H10.5839V132.39H41.5641V134.527Z" fill="#231F20"/>
<rect x="10.3212" y="134.797" width="31.5057" height="15.8537" fill="white"/>
<path fill-rule="evenodd" clip-rule="evenodd" d="M10.2978 150.891H41.8268C41.8975 150.893 41.9658 150.866 42.0164 150.816C42.0669 150.766 42.0954 150.698 42.0954 150.627V134.779C42.097 134.707 42.0692 134.638 42.0185 134.587C41.9678 134.536 41.8985 134.508 41.8268 134.509H10.2978C10.2271 134.509 10.1593 134.538 10.1099 134.589C10.0605 134.64 10.0335 134.708 10.035 134.779V150.627C10.035 150.773 10.1527 150.891 10.2978 150.891ZM41.5641 150.381H10.5839V135.043H41.5641V150.381Z" fill="#231F20"/>
<path d="M40.9451 132.39C40.8734 132.392 40.8042 132.364 40.7534 132.313C40.7027 132.262 40.6749 132.193 40.6765 132.12V100.724C40.661 100.619 40.708 100.515 40.7966 100.458C40.8853 100.4 40.9991 100.4 41.0878 100.458C41.1764 100.515 41.2234 100.619 41.2079 100.724V132.109C41.2127 132.182 41.1872 132.254 41.1374 132.307C41.0876 132.36 41.018 132.391 40.9451 132.39Z" fill="#231F20"/>
<path d="M190.679 132.109V116.431C171.995 113.303 153.311 90.3937 153.311 90.3937L154.339 94.9074C154.339 94.9074 173.367 116.525 190.691 118.538" fill="#231F20"/>
<path fill-rule="evenodd" clip-rule="evenodd" d="M190.387 132.12C190.387 132.283 190.518 132.414 190.679 132.414C190.763 132.423 190.847 132.394 190.909 132.335C190.971 132.277 191.004 132.194 191 132.109V118.509V116.408C190.999 116.263 190.896 116.14 190.755 116.114C172.571 113.074 154.106 90.85 153.567 90.2011C153.562 90.1947 153.558 90.1904 153.556 90.1883C153.47 90.0822 153.324 90.0484 153.2 90.1061C153.083 90.1703 153.022 90.3036 153.048 90.4348L154.041 94.972C154.051 95.021 154.075 95.066 154.111 95.1011C154.298 95.3183 173.215 116.613 190.387 118.797V132.12ZM190.387 118.204C173.863 116.055 155.676 95.9756 154.596 94.7665L153.848 91.4913C157.568 95.7761 174.039 113.79 190.387 116.678V118.204Z" fill="#231F20"/>
<path d="M185.027 132.39C184.955 132.392 184.886 132.364 184.835 132.313C184.785 132.262 184.757 132.193 184.758 132.12V117.247C184.778 117.115 184.891 117.017 185.024 117.017C185.157 117.017 185.27 117.115 185.29 117.247V132.109C185.295 132.182 185.269 132.254 185.219 132.307C185.169 132.36 185.1 132.391 185.027 132.39Z" fill="#231F20"/>
<path d="M178.984 132.39C178.914 132.386 178.849 132.354 178.803 132.301C178.757 132.248 178.734 132.179 178.739 132.109V114.682C178.758 114.55 178.871 114.452 179.004 114.452C179.137 114.452 179.25 114.55 179.27 114.682V132.109C179.275 132.186 179.247 132.262 179.192 132.316C179.137 132.37 179.061 132.398 178.984 132.39Z" fill="#231F20"/>
<path d="M172.672 132.39C172.601 132.39 172.533 132.362 172.482 132.311C172.432 132.261 172.404 132.192 172.404 132.12V110.978C172.404 110.829 172.524 110.708 172.672 110.708C172.821 110.708 172.941 110.829 172.941 110.978V132.109C172.944 132.182 172.917 132.254 172.866 132.307C172.816 132.36 172.746 132.39 172.672 132.39Z" fill="#231F20"/>
<path d="M166.361 132.39C166.289 132.392 166.22 132.364 166.169 132.313C166.118 132.262 166.09 132.193 166.092 132.12V106.283C166.112 106.15 166.225 106.052 166.358 106.052C166.491 106.052 166.604 106.15 166.623 106.283V132.109C166.628 132.182 166.603 132.254 166.553 132.307C166.503 132.36 166.433 132.391 166.361 132.39Z" fill="#231F20"/>
<path d="M146.223 53.2863C146.077 53.2863 145.958 53.169 145.954 53.0222V47.6926C145.954 47.5435 146.075 47.4226 146.223 47.4226C146.371 47.4226 146.492 47.5435 146.492 47.6926V53.0222C146.488 53.169 146.369 53.2863 146.223 53.2863Z" fill="#231F20"/>
<path d="M146.97 54.4308H145.47L138.995 81.2195H153.451L146.97 54.4308Z" fill="#231F20"/>
<path fill-rule="evenodd" clip-rule="evenodd" d="M138.995 81.5072H153.445C153.536 81.5077 153.622 81.4666 153.679 81.3957C153.733 81.326 153.753 81.2351 153.731 81.1491L147.256 54.3663C147.224 54.2332 147.106 54.1389 146.97 54.1374H145.47C145.334 54.1373 145.217 54.2329 145.189 54.3663L138.714 81.1491C138.693 81.2351 138.713 81.326 138.767 81.3957C138.822 81.465 138.906 81.5059 138.995 81.5072ZM153.078 80.9202H139.368L145.703 54.7243H146.743L153.078 80.9202Z" fill="#231F20"/>
<rect x="146.964" y="54.4368" width="1.48887" height="2.00739" transform="rotate(-180 146.964 54.4368)" fill="#231F20"/>
<path fill-rule="evenodd" clip-rule="evenodd" d="M145.458 54.7244H146.964C147.117 54.7121 147.234 54.5842 147.233 54.4309V52.4235C147.233 52.2614 147.102 52.13 146.941 52.13H145.458C145.297 52.13 145.166 52.2614 145.166 52.4235V54.4309C145.166 54.593 145.297 54.7244 145.458 54.7244ZM146.696 54.1374H145.797V52.717H146.696V54.1374Z" fill="#231F20"/>
<path d="M143.064 80.3391V73.9941L146.223 68.6528L149.382 73.9941V80.3391H152.418V131.117H140.028V80.3391H143.064Z" fill="#E7816B"/>
<path fill-rule="evenodd" clip-rule="evenodd" d="M140.028 131.387H152.412C152.558 131.387 152.677 131.269 152.68 131.123V80.345C152.681 80.2739 152.652 80.2058 152.601 80.1561C152.551 80.1064 152.483 80.0793 152.412 80.0809H149.644V74C149.645 73.9527 149.633 73.9061 149.609 73.865L146.451 68.5237C146.4 68.4475 146.314 68.4018 146.223 68.4018C146.132 68.4018 146.046 68.4475 145.995 68.5237L142.836 73.865C142.813 73.9061 142.801 73.9527 142.801 74V80.075H140.028C139.883 80.075 139.765 80.1933 139.765 80.3391V131.117C139.765 131.264 139.882 131.384 140.028 131.387ZM152.149 130.847H140.297V80.6091H143.064C143.211 80.606 143.33 80.4869 143.333 80.3391V74.0646L146.223 69.1752L149.113 74.0646V80.3391C149.113 80.4883 149.233 80.6091 149.382 80.6091H152.149V130.847Z" fill="#231F20"/>
<path d="M152.412 85.2578H140.028C139.896 85.2381 139.799 85.1245 139.799 84.9907C139.799 84.857 139.896 84.7434 140.028 84.7237H152.412C152.516 84.7081 152.62 84.7553 152.677 84.8444C152.734 84.9335 152.734 85.048 152.677 85.1371C152.62 85.2262 152.516 85.2734 152.412 85.2578Z" fill="#231F20"/>
<path d="M148.412 94.9367H150.368V88.5741C150.368 88.0283 149.388 87.1478 149.388 87.1478C149.388 87.1478 148.412 88.0283 148.412 88.5741V94.9367Z" fill="#231F20"/>
<path d="M145.242 94.9367H147.21V88.5741C147.21 88.0283 146.229 87.1478 146.229 87.1478C146.229 87.1478 145.248 88.0283 145.248 88.5741L145.242 94.9367Z" fill="#231F20"/>
<path d="M142.077 94.9367H144.033V88.5741C144.033 88.0283 143.058 87.1478 143.058 87.1478C143.058 87.1478 142.077 88.0283 142.077 88.5741V94.9367Z" fill="#231F20"/>
<path d="M148.412 106.87H150.368V100.478C150.368 99.9376 149.388 99.0513 149.388 99.0513C149.388 99.0513 148.412 99.9376 148.412 100.478V106.87Z" fill="#231F20"/>
<path d="M145.242 106.87H147.21V100.478C147.21 99.9376 146.229 99.0513 146.229 99.0513C146.229 99.0513 145.248 99.9376 145.248 100.478L145.242 106.87Z" fill="#231F20"/>
<path d="M142.077 106.87H144.033V100.478C144.033 99.9376 143.058 99.0513 143.058 99.0513C143.058 99.0513 142.077 99.9376 142.077 100.478V106.87Z" fill="#231F20"/>
<path d="M148.412 118.755H150.368V112.387C150.368 111.841 149.388 110.961 149.388 110.961C149.388 110.961 148.412 111.841 148.412 112.387V118.755Z" fill="#231F20"/>
<path d="M145.242 118.755H147.21V112.387C147.21 111.841 146.229 110.961 146.229 110.961C146.229 110.961 145.248 111.841 145.248 112.387L145.242 118.755Z" fill="#231F20"/>
<path d="M142.077 118.755H144.033V112.387C144.033 111.841 143.058 110.961 143.058 110.961C143.058 110.961 142.077 111.841 142.077 112.387V118.755Z" fill="#231F20"/>
<path d="M151.489 97.4783H140.98C140.833 97.4752 140.714 97.3561 140.711 97.2083C140.714 97.0614 140.834 96.9441 140.98 96.9441H151.489C151.636 96.9441 151.755 97.0614 151.758 97.2083C151.755 97.3561 151.636 97.4752 151.489 97.4783Z" fill="#231F20"/>
<path d="M151.489 109.611H140.98C140.875 109.626 140.772 109.579 140.714 109.49C140.657 109.401 140.657 109.286 140.714 109.197C140.772 109.108 140.875 109.061 140.98 109.077H151.489C151.594 109.061 151.697 109.108 151.755 109.197C151.812 109.286 151.812 109.401 151.755 109.49C151.697 109.579 151.594 109.626 151.489 109.611Z" fill="#231F20"/>
<path d="M151.974 122.271H140.472C140.326 122.271 140.206 122.154 140.203 122.007C140.206 121.859 140.325 121.74 140.472 121.737H151.974C152.121 121.74 152.24 121.859 152.243 122.007C152.239 122.154 152.12 122.271 151.974 122.271Z" fill="#231F20"/>
<path d="M154.473 60.6115L151.519 71.9222H157.427L154.473 60.6115Z" fill="#231F20"/>
<path fill-rule="evenodd" clip-rule="evenodd" d="M151.519 72.2391H157.427C157.527 72.2356 157.619 72.1829 157.673 72.0983C157.726 72.0258 157.743 71.9328 157.719 71.8459L154.8 60.5352C154.763 60.4042 154.644 60.3138 154.508 60.3138C154.372 60.3138 154.253 60.4042 154.216 60.5352L151.238 71.8694C151.214 71.9571 151.234 72.0511 151.291 72.1217C151.345 72.194 151.429 72.2373 151.519 72.2391ZM157.03 71.6522H151.881L154.455 61.7854L157.03 71.6522Z" fill="#231F20"/>
<path d="M156.365 71.9222L156.242 90.7752L155.115 93.7922V131.117H151.49V93.4107L152.371 91.4326V71.9222H156.365Z" fill="#E7816B"/>
<path fill-rule="evenodd" clip-rule="evenodd" d="M151.489 131.387H155.115C155.262 131.384 155.381 131.265 155.384 131.117V93.8391L156.481 90.8691C156.487 90.8381 156.487 90.8063 156.481 90.7752L156.61 71.9222C156.609 71.8493 156.58 71.7796 156.528 71.7285C156.478 71.6796 156.411 71.6522 156.341 71.6522H152.348C152.199 71.6522 152.079 71.773 152.079 71.9222V91.3739L151.221 93.305C151.215 93.3399 151.215 93.3757 151.221 93.4106V131.117C151.224 131.265 151.342 131.384 151.489 131.387ZM154.847 130.847H151.758L151.781 93.4693L152.64 91.5441C152.645 91.5071 152.645 91.4696 152.64 91.4326V72.1863H156.079L155.956 90.7224L154.847 93.6924C154.842 93.7235 154.842 93.7552 154.847 93.7863V130.847Z" fill="#231F20"/>
<path d="M156.283 84.442H152.371C152.267 84.4575 152.163 84.4103 152.106 84.3212C152.049 84.2321 152.049 84.1176 152.106 84.0286C152.163 83.9395 152.267 83.8922 152.371 83.9078H156.283C156.387 83.8922 156.491 83.9395 156.548 84.0286C156.605 84.1176 156.605 84.2321 156.548 84.3212C156.491 84.4103 156.387 84.4575 156.283 84.442Z" fill="#231F20"/>
<path d="M155.115 94.0563H151.489C151.385 94.0719 151.281 94.0247 151.224 93.9356C151.167 93.8465 151.167 93.732 151.224 93.6429C151.281 93.5538 151.385 93.5066 151.489 93.5222H155.115C155.22 93.5066 155.323 93.5538 155.381 93.6429C155.438 93.732 155.438 93.8465 155.381 93.9356C155.323 94.0247 155.22 94.0719 155.115 94.0563Z" fill="#231F20"/>
<path d="M137.973 60.6115L140.927 71.9222H135.018L137.973 60.6115Z" fill="#231F20"/>
<path fill-rule="evenodd" clip-rule="evenodd" d="M134.785 72.1218C134.841 72.1943 134.927 72.2374 135.018 72.2392H140.927C141.023 72.243 141.115 72.1991 141.172 72.1218C141.229 72.0511 141.249 71.9571 141.225 71.8694L138.271 60.5587C138.233 60.4277 138.114 60.3373 137.979 60.3373C137.843 60.3373 137.724 60.4277 137.687 60.5587L134.732 71.8694C134.711 71.9572 134.73 72.0499 134.785 72.1218ZM137.973 61.7855L140.548 71.6522H135.398L137.973 61.7855Z" fill="#231F20"/>
<path d="M136.081 71.9222L136.204 90.7752L137.331 93.7922V131.117H140.956V93.4107L140.075 91.4326V71.9222H136.081Z" fill="#E7816B"/>
<path fill-rule="evenodd" clip-rule="evenodd" d="M137.331 131.387H140.956C141.099 131.378 141.211 131.26 141.213 131.117V93.4107C141.219 93.3757 141.219 93.34 141.213 93.305L140.355 91.3739V71.9222C140.355 71.7731 140.235 71.6522 140.086 71.6522H136.093C136.021 71.6488 135.95 71.6762 135.899 71.7276C135.848 71.7789 135.821 71.8496 135.824 71.9222L135.953 90.7752C135.95 90.8065 135.95 90.8379 135.953 90.8691L137.062 93.8391V131.117C137.065 131.265 137.183 131.384 137.331 131.387ZM140.688 130.847H137.599L137.582 93.7863C137.587 93.7552 137.587 93.7235 137.582 93.6924L136.472 90.7224L136.35 72.1863H139.829V91.4326C139.821 91.4693 139.821 91.5074 139.829 91.5441L140.688 93.4694V130.847Z" fill="#231F20"/>
<path d="M140.075 84.442H136.163C136.058 84.4575 135.955 84.4103 135.898 84.3212C135.84 84.2321 135.84 84.1176 135.898 84.0286C135.955 83.9395 136.058 83.8922 136.163 83.9078H140.075C140.179 83.8922 140.283 83.9395 140.34 84.0286C140.397 84.1176 140.397 84.2321 140.34 84.3212C140.283 84.4103 140.179 84.4575 140.075 84.442Z" fill="#231F20"/>
<path d="M140.956 94.0563H137.331C137.226 94.0719 137.122 94.0247 137.065 93.9356C137.008 93.8465 137.008 93.732 137.065 93.6429C137.122 93.5538 137.226 93.5066 137.331 93.5222H140.956C141.061 93.5066 141.164 93.5538 141.222 93.6429C141.279 93.732 141.279 93.8465 141.222 93.9356C141.164 94.0247 141.061 94.0719 140.956 94.0563Z" fill="#231F20"/>
<path d="M154.473 61.3452C154.334 61.3393 154.222 61.2271 154.216 61.087V58.4398C154.216 58.2907 154.336 58.1698 154.485 58.1698C154.633 58.1698 154.753 58.2907 154.753 58.4398V61.087C154.75 61.1586 154.719 61.2261 154.666 61.2745C154.614 61.323 154.544 61.3484 154.473 61.3452Z" fill="#231F20"/>
<path d="M137.973 61.3452C137.901 61.3468 137.832 61.3189 137.781 61.2679C137.73 61.2169 137.703 61.1473 137.704 61.0752V58.4398C137.689 58.3349 137.736 58.2306 137.824 58.1732C137.913 58.1157 138.027 58.1157 138.115 58.1732C138.204 58.2306 138.251 58.3349 138.236 58.4398V61.0869C138.232 61.2305 138.116 61.3452 137.973 61.3452Z" fill="#231F20"/>
<rect x="133.29" y="131.117" width="25.8772" height="19.5339" fill="#E7816B"/>
<path fill-rule="evenodd" clip-rule="evenodd" d="M133.29 150.891H159.173C159.31 150.892 159.424 150.787 159.436 150.651V131.117C159.436 130.97 159.319 130.85 159.173 130.847H133.29C133.143 130.85 133.025 130.969 133.022 131.117V150.627C133.025 150.774 133.144 150.891 133.29 150.891ZM158.887 150.357H133.559V131.387H158.887V150.357Z" fill="#231F20"/>
<path d="M145.242 81.2137H147.21V74.8511C147.21 74.3052 146.229 73.4248 146.229 73.4248C146.229 73.4248 145.248 74.3052 145.248 74.8511L145.242 81.2137Z" fill="#231F20"/>
<rect x="190.673" y="134.797" width="31.5057" height="2.67065" transform="rotate(-180 190.673 134.797)" fill="white"/>
<path fill-rule="evenodd" clip-rule="evenodd" d="M159.15 135.043H190.679C190.822 135.043 190.938 134.929 190.942 134.785V132.109C190.942 131.963 190.824 131.845 190.679 131.845H159.15C159.079 131.843 159.011 131.87 158.96 131.92C158.91 131.97 158.881 132.038 158.881 132.109V134.779C158.881 134.85 158.91 134.918 158.96 134.968C159.011 135.018 159.079 135.045 159.15 135.043ZM190.416 134.509H159.436V132.373H190.416V134.509Z" fill="#231F20"/>
<rect x="190.673" y="150.645" width="31.5057" height="15.8537" transform="rotate(-180 190.673 150.645)" fill="white"/>
<path fill-rule="evenodd" clip-rule="evenodd" d="M159.15 150.891H190.679C190.824 150.891 190.942 150.773 190.942 150.627V134.779C190.943 134.708 190.916 134.64 190.867 134.589C190.817 134.538 190.75 134.509 190.679 134.509H159.15C159.078 134.508 159.009 134.536 158.958 134.587C158.907 134.638 158.88 134.707 158.881 134.779V150.627C158.881 150.698 158.91 150.766 158.96 150.816C159.011 150.866 159.079 150.893 159.15 150.891ZM190.416 150.357H159.436V135.043H190.416V150.357Z" fill="#231F20"/>
<path d="M160.055 132.39C159.984 132.39 159.916 132.362 159.867 132.311C159.818 132.26 159.791 132.191 159.792 132.12V100.724C159.777 100.619 159.824 100.515 159.912 100.458C160.001 100.4 160.115 100.4 160.203 100.458C160.292 100.515 160.339 100.619 160.323 100.724V132.109C160.328 132.183 160.302 132.256 160.251 132.309C160.2 132.363 160.129 132.392 160.055 132.39Z" fill="#231F20"/>
<path d="M74.2842 151.478C74.1264 151.475 73.9984 151.349 73.9922 151.191C73.9907 151.113 74.02 151.038 74.0736 150.981C74.1273 150.925 74.2009 150.893 74.2783 150.891C77.3508 150.792 80.2298 149.36 82.1723 146.965C82.2244 146.9 82.3002 146.86 82.3825 146.853C82.4648 146.847 82.5456 146.877 82.6043 146.935C84.079 148.467 86.0058 149.48 88.0986 149.823C90.1844 150.137 92.2863 149.366 93.6804 147.775C93.778 147.654 93.952 147.631 94.0774 147.722C97.4755 149.972 102.025 149.204 104.505 145.961C104.563 145.889 104.65 145.847 104.742 145.847C104.834 145.847 104.921 145.889 104.978 145.961C107.413 149.4 112.761 150.328 116.2 147.91C116.322 147.82 116.492 147.843 116.586 147.962C117.487 148.984 118.777 149.573 120.136 149.582C121.492 149.659 122.816 149.143 123.767 148.168C123.833 148.101 123.926 148.069 124.018 148.08C124.109 148.093 124.189 148.147 124.234 148.227C124.616 148.825 125.22 149.244 125.912 149.39C126.604 149.536 127.325 149.396 127.913 149.001C128.043 148.907 128.223 148.933 128.321 149.06C128.367 149.123 128.386 149.202 128.374 149.279C128.362 149.356 128.32 149.425 128.257 149.471C127.544 149.982 126.647 150.162 125.793 149.964C125.059 149.819 124.401 149.415 123.937 148.825C121.71 150.708 118.426 150.583 116.346 148.538C112.767 150.885 107.425 149.976 104.774 146.618C102.093 149.792 97.5096 150.522 93.984 148.338C92.454 149.944 90.2471 150.709 88.0577 150.392C85.9422 150.058 83.9829 149.069 82.4525 147.563C80.402 149.963 77.4413 151.384 74.2959 151.478H74.2842Z" fill="#D1D3D4"/>
<path d="M115.751 154.067C114.617 154.104 113.517 153.681 112.697 152.893C110.216 154.687 106.779 154.254 104.815 151.901C102.613 153.38 99.9461 153.992 97.3237 153.621C97.2194 153.605 97.1314 153.534 97.0928 153.436C97.0542 153.337 97.0708 153.225 97.1365 153.142C97.2022 153.059 97.307 153.018 97.4113 153.034C99.9786 153.407 102.591 152.777 104.71 151.273C104.774 151.227 104.854 151.208 104.932 151.22C105.008 151.236 105.077 151.28 105.124 151.343C105.98 152.462 107.245 153.191 108.638 153.366C110.031 153.541 111.436 153.149 112.539 152.276C112.599 152.224 112.677 152.199 112.755 152.206C112.833 152.213 112.904 152.251 112.954 152.312C113.783 153.209 114.993 153.647 116.2 153.486C117.448 153.291 118.657 152.894 119.779 152.312C119.851 152.28 119.931 152.279 120.004 152.307C120.076 152.336 120.134 152.393 120.165 152.464C120.23 152.612 120.165 152.785 120.019 152.852C118.836 153.447 117.563 153.843 116.253 154.026C116.086 154.048 115.919 154.062 115.751 154.067Z" fill="#D1D3D4"/>
<path d="M81.5767 154.601C81.4324 154.599 81.3108 154.492 81.2906 154.348C81.2695 154.189 81.3778 154.041 81.5358 154.014C82.737 153.829 83.8391 153.236 84.6595 152.335C84.7132 152.279 84.7863 152.245 84.8639 152.241C84.9424 152.237 85.019 152.267 85.0741 152.323C85.6727 152.951 86.4735 153.344 87.3337 153.433C88.1689 153.517 88.9861 153.151 89.4823 152.47C89.5354 152.389 89.6254 152.341 89.7217 152.341C89.8165 152.348 89.9048 152.392 89.9669 152.464C90.5424 153.252 91.5719 153.552 92.4776 153.198C92.5744 153.152 92.6884 153.163 92.7746 153.227C92.8608 153.291 92.9055 153.397 92.8911 153.503C92.8766 153.61 92.8053 153.7 92.7053 153.738C91.6764 154.14 90.5085 153.888 89.7334 153.098C89.0963 153.755 88.2021 154.092 87.2928 154.02C86.3963 153.934 85.552 153.557 84.8872 152.946C83.9994 153.828 82.8571 154.405 81.6234 154.595L81.5767 154.601Z" fill="#D1D3D4"/>
<defs>
<linearGradient id="paint0_linear_1_2459" x1="0" y1="202" x2="202" y2="202" gradientUnits="userSpaceOnUse">
<stop stop-color="#5D0202" stop-opacity="0.01"/>
<stop offset="1" stop-color="#5D0202" stop-opacity="0.497569"/>
</linearGradient>
</defs>
</svg>
